<svg id="svg" version="1.1" xmlns="http://www.w3.org/2000/svg" xmlns:xlink="http://www.w3.org/1999/xlink" width="400" height="540.6593406593406" viewBox="0, 0, 400,540.6593406593406"><g id="svgg"><path id="path0" d="M0.000 270.200 L 0.000 540.400 200.000 540.400 L 400.000 540.400 400.000 270.200 L 400.000 0.000 200.000 0.000 L 0.000 0.000 0.000 270.200 M369.112 30.737 C 370.019 31.313,369.836 509.234,368.929 509.900 C 367.778 510.744,32.495 510.622,31.289 509.777 L 30.400 509.155 30.400 270.257 C 30.400 84.982,30.508 31.252,30.880 30.880 C 31.442 30.318,368.226 30.175,369.112 30.737 M44.800 270.401 L 44.800 496.001 200.100 495.901 L 355.400 495.800 355.500 270.300 L 355.601 44.800 200.200 44.800 L 44.800 44.800 44.800 270.401 M226.720 74.480 C 227.532 75.292,227.393 100.550,226.571 101.371 C 226.005 101.937,219.867 102.000,164.970 102.000 L 103.998 102.000 104.099 183.500 L 104.200 265.000 154.161 265.102 C 190.275 265.175,204.271 265.327,204.661 265.651 C 205.454 266.308,205.454 291.692,204.661 292.349 C 204.271 292.673,190.275 292.825,154.161 292.898 L 104.200 293.000 104.101 380.400 C 104.009 462.010,103.958 467.833,103.325 468.300 C 102.452 468.944,78.364 469.023,77.174 468.386 C 76.214 467.872,75.921 75.439,76.880 74.480 C 77.578 73.782,226.022 73.782,226.720 74.480 M296.971 74.629 C 297.317 74.974,297.600 75.424,297.600 75.629 C 297.600 75.833,299.220 76.000,301.200 76.000 C 304.797 76.000,306.400 76.617,306.400 78.000 C 306.400 78.220,307.107 78.400,307.971 78.400 C 309.434 78.400,310.800 79.173,310.800 80.002 C 310.800 80.191,311.170 80.464,311.623 80.607 C 312.076 80.751,312.607 81.292,312.804 81.810 C 313.091 82.565,313.504 82.777,314.881 82.876 C 316.213 82.972,316.689 83.203,316.995 83.900 C 317.212 84.395,317.527 84.800,317.695 84.800 C 318.492 84.800,319.600 86.508,319.600 87.736 C 319.600 88.772,319.824 89.174,320.600 89.527 C 321.150 89.778,321.600 90.250,321.600 90.577 C 321.600 90.904,322.005 91.385,322.500 91.646 C 323.730 92.293,323.987 92.768,323.994 94.405 C 323.999 95.475,324.215 95.904,324.900 96.205 C 325.732 96.570,325.809 96.894,325.914 100.494 C 326.019 104.046,326.106 104.428,326.914 104.854 C 328.375 105.622,328.388 105.742,328.394 118.700 C 328.401 134.216,329.161 132.800,320.829 132.800 C 312.797 132.800,313.600 134.443,313.600 118.017 L 313.600 104.492 312.600 103.837 C 311.815 103.322,311.600 102.845,311.600 101.613 C 311.600 100.295,311.424 99.960,310.500 99.519 C 309.587 99.083,309.379 98.698,309.275 97.253 C 309.179 95.925,308.965 95.464,308.370 95.308 C 307.942 95.196,307.488 94.692,307.361 94.187 C 307.234 93.682,306.727 93.168,306.234 93.044 C 305.741 92.920,305.135 92.376,304.888 91.834 C 304.529 91.045,304.095 90.823,302.719 90.724 C 301.387 90.628,300.911 90.397,300.605 89.700 C 300.212 88.805,300.163 88.800,291.133 88.800 L 282.056 88.800 281.928 89.700 C 281.819 90.470,281.522 90.618,279.881 90.723 C 278.292 90.824,277.901 91.007,277.604 91.788 C 277.407 92.307,276.895 92.843,276.466 92.979 C 276.037 93.115,275.594 93.578,275.482 94.008 C 275.369 94.438,274.810 94.968,274.239 95.185 C 273.667 95.402,273.200 95.859,273.200 96.199 C 273.200 96.539,272.750 97.022,272.200 97.273 C 271.406 97.635,271.199 98.024,271.194 99.164 C 271.187 100.886,270.891 101.401,269.700 101.773 C 268.846 102.040,268.800 102.256,268.800 106.036 C 268.800 109.894,268.769 110.031,267.800 110.473 L 266.800 110.928 266.800 161.569 L 266.800 212.210 267.700 212.605 C 268.532 212.970,268.609 213.294,268.714 216.897 C 268.828 220.766,268.837 220.799,270.014 221.407 C 271.053 221.945,271.200 222.236,271.200 223.764 C 271.200 225.191,271.350 225.546,272.030 225.724 C 272.486 225.843,272.953 226.299,273.067 226.736 C 273.182 227.174,273.706 227.640,274.232 227.772 C 274.794 227.913,275.287 228.406,275.428 228.968 C 275.560 229.494,276.026 230.018,276.464 230.133 C 276.901 230.247,277.357 230.714,277.476 231.170 C 277.641 231.799,278.014 232.000,279.014 232.000 C 280.860 232.000,281.605 232.360,282.021 233.455 L 282.380 234.400 291.390 234.400 C 298.932 234.400,300.400 234.307,300.400 233.829 C 300.400 232.802,301.620 232.000,303.182 232.000 C 304.367 232.000,304.753 231.823,304.915 231.205 C 305.029 230.767,305.590 230.232,306.161 230.015 C 306.733 229.798,307.200 229.341,307.200 229.001 C 307.200 228.661,307.650 228.178,308.200 227.927 C 309.009 227.559,309.200 227.184,309.200 225.964 C 309.200 224.420,310.007 223.200,311.029 223.200 C 311.440 223.200,311.600 222.692,311.600 221.391 C 311.600 219.850,311.748 219.515,312.600 219.127 L 313.600 218.672 313.600 194.336 L 313.600 170.000 303.080 170.000 C 295.431 170.000,292.429 169.869,292.080 169.520 C 291.414 168.854,291.414 158.746,292.080 158.080 C 293.023 157.137,327.475 157.419,327.986 158.374 C 328.891 160.064,328.522 216.678,327.600 217.600 C 327.160 218.040,326.620 218.400,326.400 218.400 C 326.160 218.400,326.000 220.003,326.000 222.409 C 326.000 226.296,325.970 226.431,325.000 226.873 C 324.224 227.226,324.000 227.628,324.000 228.664 C 324.000 229.928,322.885 231.600,322.043 231.600 C 321.847 231.600,321.574 232.050,321.436 232.600 C 321.274 233.246,320.904 233.600,320.392 233.600 C 319.744 233.600,319.599 233.874,319.594 235.100 C 319.587 236.833,319.342 237.300,318.100 237.954 C 317.605 238.215,317.200 238.696,317.200 239.023 C 317.200 239.350,316.750 239.822,316.200 240.073 C 315.650 240.323,315.200 240.667,315.200 240.836 C 315.200 241.627,313.807 242.400,312.379 242.400 C 311.061 242.400,310.777 242.551,310.574 243.362 C 310.324 244.356,309.404 244.785,307.500 244.795 C 306.895 244.798,306.400 244.967,306.400 245.171 C 306.400 246.227,305.050 246.800,302.562 246.800 C 300.216 246.800,299.947 246.886,299.621 247.745 C 299.093 249.133,298.658 249.200,290.200 249.200 C 281.742 249.200,281.307 249.133,280.779 247.745 C 280.456 246.894,280.177 246.800,277.984 246.800 C 275.357 246.800,274.000 246.318,274.000 245.386 C 274.000 244.981,273.560 244.800,272.574 244.800 C 270.907 244.800,269.600 244.199,269.600 243.432 C 269.600 243.135,269.150 242.597,268.600 242.237 C 268.050 241.876,267.600 241.319,267.600 240.998 C 267.600 240.678,267.156 240.304,266.614 240.168 C 266.072 240.032,265.525 239.594,265.399 239.196 C 265.272 238.798,264.726 238.181,264.184 237.827 C 263.643 237.472,263.200 236.928,263.200 236.618 C 263.200 236.308,262.835 235.938,262.389 235.797 C 261.943 235.655,261.293 235.103,260.943 234.570 C 260.594 234.036,260.078 233.600,259.797 233.600 C 259.145 233.600,258.800 232.696,258.800 230.989 C 258.800 229.915,258.578 229.538,257.700 229.119 C 256.791 228.685,256.578 228.296,256.476 226.878 C 256.375 225.485,256.168 225.092,255.376 224.791 C 254.412 224.424,254.400 224.358,254.397 219.310 L 254.395 214.200 253.196 213.518 L 251.997 212.835 252.098 161.323 L 252.200 109.811 253.300 109.284 L 254.400 108.756 254.400 103.770 C 254.400 98.839,254.411 98.778,255.400 98.327 C 256.217 97.955,256.400 97.587,256.400 96.317 C 256.400 95.009,256.590 94.655,257.597 94.081 C 258.633 93.492,258.795 93.169,258.797 91.691 C 258.800 90.258,258.961 89.909,259.800 89.527 C 260.350 89.277,260.800 88.835,260.800 88.546 C 260.800 88.257,261.340 87.741,262.000 87.400 C 262.660 87.059,263.200 86.510,263.200 86.181 C 263.200 85.852,263.650 85.378,264.200 85.127 C 264.750 84.877,265.200 84.435,265.200 84.146 C 265.200 83.857,265.740 83.341,266.400 83.000 C 267.060 82.659,267.600 82.110,267.600 81.781 C 267.600 81.452,268.012 80.995,268.516 80.765 C 269.020 80.536,269.605 79.955,269.816 79.474 C 270.120 78.782,270.596 78.575,272.100 78.478 C 273.396 78.395,274.000 78.180,274.000 77.801 C 274.000 76.458,275.649 76.000,280.489 76.000 C 284.088 76.000,285.200 75.877,285.200 75.480 C 285.200 73.882,295.481 73.138,296.971 74.629 M321.249 264.092 C 321.512 264.583,322.148 265.316,322.664 265.721 C 323.529 266.402,323.600 266.748,323.600 270.298 L 323.600 274.137 321.793 275.869 L 319.986 277.600 285.882 277.600 C 255.663 277.600,251.677 277.529,250.889 276.977 C 249.897 276.282,249.509 265.665,250.414 263.974 C 250.819 263.218,251.634 263.200,285.800 263.200 L 320.772 263.200 321.249 264.092 M301.673 297.000 C 302.082 297.898,302.363 298.000,304.431 298.000 C 307.277 298.000,307.963 298.250,308.421 299.455 C 308.726 300.257,309.055 300.400,310.600 300.400 C 312.161 300.400,312.473 300.539,312.791 301.376 C 312.995 301.912,313.518 302.542,313.954 302.775 C 314.389 303.008,314.860 303.559,315.000 304.000 C 315.140 304.441,315.605 304.800,316.037 304.800 C 316.497 304.800,316.971 305.199,317.187 305.766 C 317.389 306.297,317.907 306.843,318.337 306.980 C 318.768 307.117,319.229 307.660,319.361 308.187 C 319.510 308.780,319.944 309.193,320.501 309.272 C 321.269 309.381,321.418 309.679,321.523 311.319 C 321.623 312.895,321.810 313.300,322.568 313.588 C 323.643 313.997,324.000 314.748,324.000 316.605 C 324.000 317.689,324.171 317.969,324.900 318.072 C 325.758 318.194,325.805 318.392,325.914 322.315 C 326.022 326.206,326.079 326.450,326.960 326.785 C 328.404 327.334,328.400 327.279,328.400 348.433 C 328.400 369.800,328.381 370.000,326.400 370.000 C 326.160 370.000,326.000 371.603,326.000 374.009 C 326.000 377.896,325.970 378.031,325.000 378.473 C 324.183 378.845,324.000 379.213,324.000 380.483 C 324.000 381.791,323.810 382.145,322.803 382.719 C 321.767 383.308,321.605 383.631,321.603 385.109 C 321.600 386.538,321.438 386.891,320.608 387.269 C 320.062 387.518,319.518 388.027,319.400 388.400 C 319.282 388.773,318.738 389.282,318.192 389.531 C 317.647 389.779,317.200 390.250,317.200 390.577 C 317.200 391.387,315.938 392.000,314.273 392.000 C 313.213 392.000,312.843 392.192,312.676 392.830 C 312.557 393.286,312.086 393.757,311.630 393.876 C 311.173 393.996,310.800 394.252,310.800 394.447 C 310.800 395.603,309.125 396.400,306.695 396.400 C 304.481 396.400,304.144 396.505,303.795 397.300 C 303.413 398.169,303.192 398.204,297.286 398.310 C 291.292 398.419,291.165 398.439,290.817 399.356 C 290.281 400.766,289.979 400.800,277.967 400.800 L 266.800 400.800 266.794 434.100 C 266.790 454.340,266.639 467.635,266.409 468.000 C 265.796 468.972,253.815 469.119,252.763 468.167 C 252.017 467.491,252.000 465.616,252.000 383.347 L 252.000 299.218 253.036 298.539 C 253.607 298.166,254.232 297.442,254.427 296.930 L 254.780 296.000 277.999 296.000 L 301.217 296.000 301.673 297.000 M267.067 310.667 C 266.920 310.813,266.800 327.823,266.800 348.467 L 266.800 386.000 281.400 386.000 C 293.787 386.000,296.000 385.913,296.000 385.429 C 296.000 384.158,297.201 383.600,299.934 383.600 C 302.326 383.600,302.652 383.504,303.005 382.700 C 303.306 382.013,303.826 381.753,305.200 381.600 L 307.000 381.400 307.200 379.600 C 307.351 378.242,307.616 377.705,308.278 377.415 C 308.761 377.203,309.259 376.620,309.384 376.121 C 309.516 375.596,310.025 375.108,310.589 374.967 C 311.497 374.739,311.575 374.517,311.683 371.861 C 311.786 369.335,311.906 368.954,312.700 368.605 L 313.600 368.210 313.600 348.295 L 313.600 328.380 312.600 328.000 C 311.664 327.644,311.600 327.440,311.600 324.800 C 311.600 322.204,311.525 321.952,310.655 321.621 C 309.560 321.205,309.200 320.460,309.200 318.614 C 309.200 317.614,308.999 317.241,308.370 317.076 C 307.914 316.957,307.439 316.472,307.316 315.999 C 307.192 315.526,306.648 314.970,306.107 314.764 C 305.565 314.559,305.031 314.042,304.920 313.615 C 304.763 313.014,304.302 312.814,302.862 312.720 C 301.289 312.618,300.926 312.433,300.481 311.500 L 299.956 310.400 283.645 310.400 C 274.674 310.400,267.213 310.520,267.067 310.667 " stroke="none" fill="#fcfcfc" fill-rule="evenodd"></path><path id="path1" d="M77.649 75.341 C 77.317 75.741,77.226 127.251,77.300 271.641 L 77.400 467.400 90.200 467.400 L 103.000 467.400 103.101 380.240 C 103.175 316.620,103.323 292.934,103.650 292.540 C 104.022 292.092,112.563 292.000,153.769 292.000 C 191.869 292.000,203.552 291.888,203.920 291.520 C 204.606 290.834,204.606 267.166,203.920 266.480 C 203.552 266.112,191.876 266.000,153.800 266.000 C 115.724 266.000,104.048 265.888,103.680 265.520 C 103.073 264.913,102.985 102.559,103.592 101.600 C 103.925 101.072,111.343 100.976,165.085 100.800 L 226.200 100.600 226.306 88.248 C 226.381 79.467,226.280 75.738,225.957 75.348 C 225.281 74.534,78.324 74.527,77.649 75.341 M285.937 76.000 L 285.050 77.200 280.397 77.200 C 275.933 77.200,275.709 77.240,274.875 78.200 C 274.314 78.845,273.586 79.200,272.822 79.200 C 271.064 79.200,259.600 90.664,259.600 92.422 C 259.600 93.186,259.245 93.914,258.600 94.475 C 257.917 95.069,257.600 95.756,257.600 96.645 C 257.600 97.633,257.312 98.151,256.400 98.800 L 255.200 99.654 255.200 104.418 C 255.200 109.058,255.174 109.199,254.200 109.837 L 253.200 110.492 253.200 161.374 L 253.200 212.256 254.200 213.125 C 255.157 213.957,255.200 214.191,255.200 218.531 C 255.200 223.068,255.200 223.068,256.400 224.137 C 257.285 224.926,257.600 225.560,257.600 226.557 C 257.600 227.557,257.860 228.078,258.600 228.563 C 259.316 229.032,259.600 229.576,259.600 230.477 C 259.600 232.191,270.927 243.600,272.629 243.600 C 273.280 243.600,274.105 244.056,274.800 244.800 C 275.808 245.879,276.167 246.000,278.351 246.000 C 280.502 246.000,280.857 246.115,281.437 247.000 L 282.092 248.000 290.200 248.000 L 298.308 248.000 298.963 247.000 C 299.547 246.109,299.892 246.000,302.134 246.000 C 304.465 246.000,304.715 245.912,305.537 244.800 C 306.224 243.870,306.735 243.600,307.803 243.600 C 308.832 243.600,309.348 243.347,309.837 242.600 C 310.320 241.863,310.844 241.600,311.832 241.600 C 313.711 241.600,318.400 237.024,318.400 235.191 C 318.400 234.247,318.881 233.527,320.600 231.894 C 322.380 230.203,322.800 229.557,322.800 228.514 C 322.800 227.544,323.098 227.004,324.000 226.337 C 325.175 225.468,325.200 225.376,325.200 221.941 C 325.200 218.710,325.279 218.359,326.203 217.503 L 327.205 216.573 327.103 187.586 L 327.000 158.600 310.246 158.496 C 290.543 158.373,292.400 157.824,292.400 163.769 C 292.400 169.665,291.459 169.200,303.400 169.200 C 310.676 169.200,313.572 169.332,313.920 169.680 C 314.283 170.043,314.400 176.140,314.400 194.671 L 314.400 219.182 313.400 219.837 C 312.651 220.328,312.400 220.841,312.400 221.882 C 312.400 222.926,312.101 223.534,311.200 224.325 C 310.398 225.029,310.000 225.753,310.000 226.508 C 310.000 228.150,304.861 233.200,303.190 233.200 C 302.382 233.200,301.815 233.510,301.363 234.200 L 300.708 235.200 291.363 235.200 L 282.018 235.200 281.363 234.200 C 280.884 233.468,280.354 233.200,279.390 233.200 C 277.446 233.200,270.000 225.734,270.000 223.784 C 270.000 222.847,269.725 222.312,269.000 221.837 C 268.059 221.220,268.000 220.975,268.000 217.666 C 268.000 214.281,267.955 214.107,266.800 213.000 L 265.600 211.850 265.600 161.352 L 265.600 110.854 266.800 110.000 C 267.980 109.160,268.000 109.086,268.000 105.570 C 268.000 102.255,268.073 101.931,269.000 101.125 C 269.632 100.576,270.000 99.834,270.000 99.108 C 270.000 97.428,277.433 90.000,279.114 90.000 C 279.892 90.000,280.616 89.609,281.337 88.800 L 282.406 87.600 291.239 87.600 L 300.072 87.600 301.125 88.800 C 301.864 89.642,302.543 90.000,303.400 90.000 C 304.214 90.000,304.970 90.367,305.664 91.100 C 306.237 91.705,307.447 92.893,308.353 93.741 C 309.644 94.949,310.000 95.569,310.000 96.614 C 310.000 97.637,310.278 98.143,311.200 98.800 C 312.113 99.450,312.400 99.966,312.400 100.958 C 312.400 101.830,312.730 102.571,313.400 103.200 L 314.400 104.139 314.400 117.421 C 314.400 133.242,313.630 131.659,321.255 131.511 L 327.000 131.400 327.106 118.750 L 327.211 106.099 326.206 105.440 C 325.258 104.820,325.200 104.579,325.200 101.280 C 325.200 97.890,325.162 97.745,324.000 96.725 C 323.136 95.967,322.800 95.314,322.800 94.391 C 322.800 93.350,322.389 92.734,320.600 91.095 C 318.915 89.552,318.400 88.813,318.400 87.935 C 318.400 86.225,315.803 83.602,314.109 83.601 C 313.180 83.600,312.638 83.325,312.173 82.616 C 311.819 82.074,311.212 81.531,310.825 81.408 C 310.438 81.285,309.918 80.738,309.669 80.192 C 309.300 79.382,308.930 79.200,307.655 79.200 C 306.429 79.200,305.951 78.984,305.437 78.200 C 304.821 77.261,304.570 77.200,301.291 77.194 C 297.535 77.187,297.170 77.075,296.446 75.700 C 295.996 74.847,295.734 74.800,291.398 74.800 L 286.824 74.800 285.937 76.000 M255.155 297.683 C 254.895 298.169,254.346 298.844,253.935 299.183 C 253.208 299.783,253.190 302.172,253.294 383.600 L 253.400 467.400 259.400 467.400 L 265.400 467.400 265.496 434.200 L 265.592 401.000 266.440 400.300 C 267.203 399.670,268.408 399.600,278.398 399.600 L 289.508 399.600 290.163 398.600 C 290.812 397.610,290.878 397.600,296.543 397.600 L 302.268 397.600 303.337 396.400 C 304.285 395.336,304.661 395.200,306.655 395.200 C 308.850 395.200,308.957 395.147,311.087 393.000 C 312.736 391.337,313.553 390.800,314.434 390.800 C 316.121 390.800,320.800 386.084,320.800 384.384 C 320.800 383.614,321.153 382.888,321.800 382.325 C 322.488 381.727,322.800 381.045,322.800 380.140 C 322.800 379.142,323.090 378.610,324.000 377.937 C 325.176 377.068,325.200 376.978,325.200 373.522 C 325.200 370.258,325.275 369.930,326.200 369.125 L 327.200 368.256 327.200 348.174 L 327.200 328.092 326.200 327.437 C 325.255 326.818,325.200 326.581,325.200 323.165 C 325.200 319.638,325.170 319.523,324.000 318.539 C 323.114 317.793,322.800 317.184,322.800 316.210 C 322.800 315.246,322.532 314.716,321.800 314.237 C 321.011 313.720,320.800 313.246,320.800 311.991 C 320.800 311.116,320.650 310.400,320.466 310.400 C 320.185 310.400,317.814 308.157,316.140 306.308 C 315.888 306.029,314.953 305.133,314.063 304.317 C 313.174 303.501,312.250 302.466,312.009 302.017 C 311.682 301.406,311.173 301.200,309.995 301.200 C 308.755 301.200,308.279 300.987,307.763 300.200 C 307.179 299.308,306.835 299.200,304.581 299.200 C 302.230 299.200,301.995 299.117,301.200 298.000 L 300.346 296.800 277.987 296.800 L 255.628 296.800 255.155 297.683 M301.200 310.800 C 301.854 311.719,302.364 312.000,303.375 312.000 C 305.322 312.000,310.000 316.687,310.000 318.638 C 310.000 319.614,310.241 320.099,310.900 320.446 C 312.226 321.144,312.387 321.554,312.394 324.254 C 312.399 326.427,312.515 326.783,313.400 327.363 L 314.400 328.018 314.400 348.212 L 314.400 368.405 313.400 369.275 C 312.550 370.014,312.400 370.490,312.400 372.444 C 312.400 374.124,312.211 374.915,311.700 375.381 C 308.811 378.014,308.006 379.068,308.003 380.220 C 307.999 381.775,307.364 382.400,305.786 382.400 C 304.897 382.400,304.221 382.749,303.463 383.600 C 302.486 384.696,302.173 384.800,299.843 384.800 C 297.563 384.800,297.222 384.906,296.637 385.800 L 295.982 386.800 281.335 386.800 C 267.855 386.800,266.646 386.744,266.157 386.100 C 265.256 384.914,265.359 311.330,266.262 310.331 C 266.883 309.645,267.954 309.600,283.635 309.600 L 300.346 309.600 301.200 310.800 " stroke="none" fill="#bb6a44" fill-rule="evenodd"></path><path id="path2" d="M31.467 31.467 C 30.807 32.127,31.172 509.104,31.833 509.357 C 33.156 509.865,368.211 509.629,368.720 509.120 C 369.229 508.611,369.465 33.157,368.957 31.833 C 368.704 31.172,32.126 30.807,31.467 31.467 M355.669 44.262 C 356.638 45.139,356.811 494.825,355.843 496.100 C 355.164 496.995,45.374 497.214,44.480 496.320 C 43.780 495.620,43.780 44.780,44.480 44.080 C 45.341 43.219,354.716 43.400,355.669 44.262 M251.067 264.267 C 250.568 264.765,250.764 275.804,251.280 276.320 C 251.646 276.686,259.842 276.800,285.727 276.800 L 319.694 276.800 321.247 275.200 C 323.523 272.854,323.617 267.778,321.427 265.456 L 320.054 264.000 285.694 264.000 C 266.795 264.000,251.213 264.120,251.067 264.267 " stroke="none" fill="#8c8c8c" fill-rule="evenodd"></path><path id="path3" d="" stroke="none" fill="#100d0c4" fill-rule="evenodd"></path><path id="path4" d="" stroke="none" fill="#100d0c4" fill-rule="evenodd"></path><path id="path5" d="" stroke="none" fill="#100d0c4" fill-rule="evenodd"></path></g></svg>