<svg id="svg" version="1.1" xmlns="http://www.w3.org/2000/svg" xmlns:xlink="http://www.w3.org/1999/xlink" width="400" height="540.6593406593406" viewBox="0, 0, 400,540.6593406593406"><g id="svgg"><path id="path0" d="M116.132 71.500 C 135.894 71.557,168.114 71.557,187.732 71.500 C 207.349 71.443,191.180 71.396,151.800 71.396 C 112.420 71.396,96.369 71.443,116.132 71.500 M276.628 72.394 C 275.671 74.307,277.176 75.503,279.286 74.506 C 280.353 74.003,280.473 72.807,279.457 72.794 C 279.178 72.790,279.211 72.654,279.542 72.444 C 279.890 72.224,279.483 72.116,278.408 72.144 C 277.486 72.168,276.685 72.281,276.628 72.394 M300.782 72.580 C 300.572 72.789,300.400 73.262,300.400 73.631 C 300.400 74.403,301.345 75.321,301.737 74.930 C 301.882 74.785,302.000 74.899,302.000 75.182 C 302.000 75.588,302.124 75.595,302.582 75.215 C 302.903 74.949,303.398 74.865,303.682 75.030 C 303.967 75.194,304.067 75.181,303.903 75.001 C 303.740 74.821,303.807 74.432,304.052 74.137 C 304.380 73.742,304.380 73.458,304.052 73.063 C 303.807 72.768,303.694 72.440,303.800 72.333 C 303.906 72.227,303.357 72.154,302.579 72.170 C 301.801 72.187,300.993 72.371,300.782 72.580 M75.925 74.898 C 75.850 75.678,75.599 76.160,75.300 76.100 C 75.025 76.045,74.800 76.191,74.800 76.424 C 74.800 76.657,74.620 76.736,74.401 76.601 C 74.135 76.436,74.002 142.070,74.002 272.400 C 74.002 402.730,74.135 468.364,74.401 468.199 C 74.620 468.064,74.800 468.154,74.800 468.400 C 74.800 468.646,74.992 468.728,75.227 468.583 C 75.627 468.336,76.102 469.331,75.991 470.184 C 75.834 471.385,102.585 471.757,103.771 470.571 C 104.339 470.004,104.400 461.537,104.400 383.344 L 104.400 296.746 105.250 297.016 C 105.793 297.188,106.008 297.136,105.844 296.870 C 105.702 296.642,105.770 296.342,105.993 296.204 C 106.684 295.777,106.444 294.943,105.500 294.488 C 104.911 294.204,104.807 294.035,105.200 293.999 C 105.617 293.961,105.556 293.839,105.000 293.600 C 104.547 293.405,125.930 293.222,154.300 293.178 C 212.137 293.088,205.367 293.234,205.531 292.076 C 205.603 291.567,205.963 291.040,206.331 290.905 C 206.699 290.769,207.135 290.465,207.300 290.229 C 207.783 289.539,207.619 267.505,207.127 266.912 C 206.893 266.630,206.836 266.400,207.000 266.400 C 207.164 266.400,207.076 266.132,206.804 265.804 C 206.532 265.477,206.162 265.300,205.982 265.411 C 205.802 265.522,205.542 265.430,205.404 265.207 C 205.236 264.935,188.468 264.800,154.776 264.800 C 121.201 264.800,104.400 264.666,104.400 264.397 C 104.400 264.128,120.911 264.028,154.100 264.097 C 200.980 264.194,203.840 264.160,204.500 263.500 C 205.487 262.513,205.488 262.505,204.600 261.788 C 204.160 261.432,204.070 261.273,204.400 261.434 C 204.730 261.596,204.891 261.605,204.757 261.455 C 204.624 261.305,181.989 261.188,154.457 261.195 L 104.400 261.209 104.400 183.605 L 104.400 106.000 164.100 105.937 C 196.935 105.902,224.023 105.882,224.296 105.892 C 224.568 105.902,224.693 105.750,224.572 105.555 C 224.451 105.360,224.543 105.200,224.776 105.200 C 225.009 105.200,225.200 104.840,225.200 104.400 C 225.200 103.960,225.009 103.600,224.776 103.600 C 224.543 103.600,224.463 103.422,224.597 103.205 C 224.737 102.978,224.577 102.911,224.221 103.047 C 223.879 103.178,223.600 103.087,223.600 102.844 C 223.600 102.525,207.112 102.374,163.900 102.300 L 104.200 102.197 165.880 102.099 L 227.561 102.000 227.589 88.804 C 227.605 81.547,227.504 75.158,227.366 74.608 L 227.115 73.608 151.583 73.602 L 76.051 73.596 75.925 74.898 M281.021 74.491 C 280.698 74.953,280.502 75.442,280.587 75.579 C 280.671 75.715,279.494 75.878,277.970 75.940 C 275.270 76.050,274.964 75.917,275.150 74.707 C 275.232 74.177,273.157 73.883,272.682 74.358 C 271.819 75.221,272.374 77.895,273.300 77.334 C 273.465 77.235,273.600 77.343,273.600 77.576 C 273.600 78.226,271.451 78.079,270.576 77.370 C 270.149 77.024,270.025 76.855,270.300 76.994 C 271.139 77.419,270.856 76.858,270.000 76.400 C 268.338 75.511,266.751 78.176,268.170 79.472 C 268.374 79.659,268.406 79.587,268.243 79.305 C 268.050 78.968,268.163 78.888,268.596 79.054 C 269.462 79.386,269.137 80.171,268.069 80.328 C 267.450 80.419,267.200 80.736,267.200 81.428 C 267.200 82.241,267.004 82.400,266.000 82.400 C 264.949 82.400,264.800 82.541,264.800 83.532 C 264.800 84.448,264.629 84.657,263.900 84.632 C 263.206 84.607,262.971 84.852,262.873 85.700 C 262.767 86.621,262.556 86.800,261.573 86.800 C 260.596 86.800,260.400 86.963,260.400 87.776 C 260.400 89.108,259.873 89.329,259.216 88.274 C 258.700 87.446,258.712 87.432,259.436 88.000 C 260.142 88.555,260.158 88.547,259.651 87.900 C 258.953 87.010,257.355 86.995,256.862 87.874 C 256.404 88.694,257.080 90.400,257.864 90.400 C 259.098 90.400,258.496 93.115,257.200 93.400 C 256.047 93.653,256.000 93.748,256.000 95.832 C 256.000 97.878,255.944 98.000,255.000 98.000 L 254.000 98.000 254.000 102.400 L 254.000 106.800 252.976 106.800 C 252.413 106.800,252.056 106.968,252.183 107.172 C 252.309 107.377,252.233 107.656,252.012 107.792 C 251.307 108.229,251.483 215.026,252.191 215.734 C 252.505 216.048,252.663 216.404,252.541 216.525 C 252.420 216.647,252.692 216.649,253.146 216.530 C 253.938 216.323,253.977 216.492,254.086 220.657 C 254.195 224.816,254.238 225.005,255.100 225.128 C 255.882 225.239,256.004 225.502,256.031 227.128 C 256.047 228.158,256.122 229.316,256.195 229.702 C 256.269 230.088,256.158 230.297,255.947 230.167 C 254.959 229.556,254.152 231.828,254.918 233.067 C 255.325 233.725,257.281 233.177,257.499 232.343 C 257.805 231.174,258.400 231.475,258.400 232.800 C 258.400 233.813,258.556 234.000,259.400 234.000 C 260.155 234.000,260.400 234.210,260.400 234.857 C 260.400 235.328,260.927 236.217,261.571 236.833 C 262.215 237.448,262.800 238.458,262.871 239.076 C 262.984 240.063,263.187 240.215,264.528 240.326 C 265.998 240.447,266.038 240.418,265.577 239.557 C 265.174 238.804,265.216 238.578,265.842 238.120 C 266.792 237.425,267.597 237.590,268.157 238.594 C 268.401 239.031,268.916 239.626,269.302 239.918 C 269.811 240.302,269.930 240.741,269.735 241.517 C 269.587 242.105,269.467 242.797,269.467 243.055 C 269.467 243.313,269.197 243.420,268.868 243.294 C 268.496 243.151,268.372 243.231,268.541 243.504 C 268.691 243.747,268.602 244.075,268.345 244.234 C 268.052 244.415,267.984 244.350,268.162 244.062 C 268.319 243.808,268.278 243.600,268.070 243.600 C 267.586 243.600,267.759 245.919,268.282 246.442 C 268.796 246.956,270.800 246.076,270.800 245.336 C 270.800 244.153,273.534 244.690,273.673 245.900 C 273.799 246.990,273.830 247.001,277.100 247.116 C 280.307 247.229,280.400 247.260,280.400 248.216 L 280.400 249.200 290.571 249.200 C 300.961 249.200,301.529 249.123,302.064 247.638 C 302.139 247.431,303.190 247.232,304.400 247.196 C 307.463 247.106,307.518 247.119,307.456 247.876 C 307.414 248.387,307.738 248.557,308.790 248.575 C 310.209 248.599,311.036 246.440,309.882 245.727 C 309.631 245.572,309.600 245.691,309.800 246.038 C 309.977 246.347,309.764 246.240,309.325 245.800 C 308.527 245.000,308.527 245.000,309.663 244.875 C 310.567 244.775,310.800 244.549,310.800 243.775 C 310.800 242.346,313.614 242.331,314.377 243.756 C 314.852 244.644,317.202 244.177,317.123 243.210 C 317.056 242.407,317.262 241.991,317.618 242.211 C 318.134 242.530,319.273 241.642,318.972 241.155 C 318.851 240.960,318.954 240.800,319.200 240.800 C 319.446 240.800,319.549 240.641,319.429 240.446 C 319.309 240.252,319.741 239.873,320.391 239.604 C 321.040 239.335,321.557 238.999,321.538 238.857 C 321.434 238.047,321.665 237.650,322.136 237.831 C 322.431 237.944,322.903 237.758,323.185 237.418 C 323.467 237.078,323.541 236.797,323.349 236.794 C 323.157 236.791,323.270 236.613,323.600 236.400 C 323.979 236.155,324.021 236.010,323.713 236.006 C 323.422 236.002,323.329 235.730,323.482 235.331 C 323.679 234.818,323.578 234.723,323.049 234.926 C 322.638 235.084,322.457 235.031,322.603 234.795 C 322.737 234.578,322.657 234.400,322.424 234.400 C 322.191 234.400,322.000 233.750,322.000 232.955 C 322.000 231.605,322.073 231.520,323.100 231.672 L 324.200 231.834 324.066 229.547 C 323.934 227.295,323.950 227.258,325.066 227.130 C 326.188 227.001,326.201 226.967,326.315 223.988 C 326.417 221.321,326.532 220.932,327.315 220.588 L 328.200 220.200 328.302 188.700 L 328.405 157.200 309.802 157.200 L 291.200 157.200 291.206 163.500 C 291.212 170.121,291.588 171.914,292.922 171.682 C 293.295 171.618,293.600 171.759,293.600 171.996 C 293.600 172.296,296.591 172.393,303.400 172.314 L 313.201 172.200 313.200 194.257 L 313.200 216.313 312.200 216.564 C 311.251 216.802,311.200 216.960,311.200 219.642 C 311.200 222.416,311.177 222.478,310.000 222.922 C 308.876 223.347,308.800 223.509,308.800 225.483 C 308.800 227.430,308.732 227.583,307.900 227.495 C 307.187 227.420,306.974 227.628,306.873 228.500 C 306.768 229.415,306.554 229.600,305.600 229.600 C 304.649 229.600,304.432 229.786,304.327 230.690 C 304.205 231.738,304.104 231.782,301.683 231.853 C 298.572 231.945,298.000 232.154,298.000 233.196 C 298.000 234.000,297.836 234.015,290.100 233.908 C 282.819 233.808,282.209 233.745,282.318 233.097 C 282.462 232.239,280.756 231.495,279.416 231.832 C 277.995 232.188,277.820 231.313,279.173 230.614 C 280.477 229.940,280.472 229.004,279.163 228.588 C 278.743 228.455,278.400 228.168,278.400 227.949 C 278.400 227.731,278.220 227.664,278.000 227.800 C 277.780 227.936,277.578 227.767,277.550 227.424 C 277.450 226.175,277.395 226.000,277.100 226.000 C 276.935 226.000,276.260 226.000,275.600 226.000 C 274.800 226.000,274.400 226.200,274.400 226.600 C 274.400 227.553,273.777 227.295,273.703 226.311 C 273.666 225.823,273.933 225.095,274.297 224.693 C 275.868 222.957,274.345 219.895,272.719 221.521 C 272.233 222.007,271.967 224.867,272.435 224.578 C 272.605 224.473,272.858 224.570,272.996 224.793 C 273.135 225.019,272.880 225.200,272.424 225.200 C 271.632 225.200,271.313 224.020,271.577 222.070 C 271.616 221.779,271.436 221.284,271.175 220.970 C 270.772 220.485,271.241 220.073,271.710 220.500 C 272.076 220.833,273.000 219.316,273.000 218.382 C 273.000 217.769,272.934 217.333,272.852 217.414 C 272.771 217.495,272.422 217.279,272.075 216.932 C 271.503 216.360,271.385 216.378,270.773 217.135 C 270.402 217.592,269.958 217.839,269.786 217.683 C 269.614 217.527,269.586 217.715,269.724 218.100 C 269.862 218.485,269.801 218.800,269.587 218.800 C 269.374 218.800,269.187 217.765,269.172 216.500 C 269.120 212.243,268.992 210.603,268.671 210.100 C 268.496 209.825,268.460 209.426,268.592 209.213 C 268.723 209.000,268.464 208.597,268.016 208.317 C 266.797 207.556,266.716 114.608,267.933 114.221 C 268.337 114.093,268.686 113.766,268.710 113.494 C 268.734 113.222,268.840 112.640,268.946 112.200 C 269.052 111.760,269.153 109.825,269.169 107.900 C 269.189 105.622,269.355 104.400,269.644 104.400 C 269.915 104.400,270.024 104.943,269.924 105.800 C 269.834 106.570,269.915 107.200,270.104 107.200 C 270.293 107.200,270.344 107.367,270.218 107.571 C 269.745 108.336,271.645 108.489,272.259 107.736 C 272.589 107.331,272.727 107.270,272.566 107.600 C 272.404 107.930,272.413 108.073,272.585 107.918 C 273.004 107.540,273.088 103.599,272.676 103.600 C 272.498 103.600,272.451 103.440,272.572 103.245 C 272.693 103.050,272.480 102.915,272.100 102.945 C 271.542 102.989,271.422 102.692,271.473 101.400 C 271.509 100.520,271.552 99.305,271.569 98.700 C 271.594 97.802,271.783 97.600,272.600 97.600 C 273.422 97.600,273.600 97.406,273.600 96.511 C 273.600 95.430,273.605 95.429,274.198 96.276 C 274.527 96.746,275.022 97.090,275.298 97.040 C 276.556 96.817,277.594 96.313,277.410 96.017 C 277.095 95.507,278.305 94.696,278.882 95.030 C 279.167 95.194,279.273 95.187,279.117 95.014 C 278.961 94.842,279.214 94.393,279.679 94.016 L 280.524 93.332 279.573 92.666 C 278.934 92.219,278.816 91.987,279.211 91.960 C 279.535 91.938,279.350 91.776,278.800 91.600 C 278.009 91.347,278.232 91.271,279.867 91.240 C 281.004 91.218,282.249 91.079,282.633 90.932 C 283.121 90.745,283.241 90.810,283.031 91.150 C 281.923 92.943,294.362 93.701,297.110 92.007 C 298.549 91.120,302.156 90.882,302.626 91.643 C 302.808 91.936,302.632 92.001,302.107 91.834 C 300.834 91.430,299.745 93.948,300.887 94.654 C 301.170 94.829,301.211 94.726,301.003 94.362 C 300.744 93.907,300.786 93.896,301.221 94.300 C 302.070 95.088,303.187 94.886,303.571 93.876 C 304.144 92.370,306.800 92.837,306.800 94.444 C 306.800 95.410,306.964 95.600,307.798 95.600 C 308.752 95.600,308.794 95.702,308.744 97.883 C 308.693 100.059,307.894 101.858,307.493 100.696 C 307.399 100.423,307.363 100.915,307.413 101.789 C 307.515 103.571,308.398 104.450,309.431 103.798 C 309.778 103.579,310.033 103.240,309.997 103.045 C 309.961 102.849,310.172 102.537,310.466 102.351 C 310.908 102.071,310.906 102.011,310.453 102.006 C 310.104 102.002,309.982 101.710,310.116 101.199 C 310.231 100.759,310.175 100.492,309.990 100.606 C 309.806 100.720,309.542 100.630,309.404 100.407 C 309.266 100.183,309.511 100.000,309.949 100.000 C 310.922 100.000,311.146 100.673,311.250 103.900 C 311.326 106.226,311.396 106.400,312.260 106.400 L 313.189 106.400 313.295 119.500 L 313.400 132.600 320.900 132.709 L 328.400 132.818 328.400 117.609 C 328.400 101.956,328.421 102.173,326.900 102.370 C 326.534 102.418,326.400 101.520,326.400 99.018 L 326.400 95.600 325.200 95.600 C 324.085 95.600,324.000 95.496,324.000 94.133 C 324.000 93.327,324.111 92.778,324.248 92.914 C 324.384 93.050,324.711 92.945,324.975 92.681 C 325.619 92.036,326.023 90.400,325.539 90.400 C 325.327 90.400,325.263 90.222,325.397 90.005 C 325.537 89.778,325.377 89.711,325.021 89.847 C 324.652 89.989,324.400 89.870,324.400 89.554 C 324.400 89.261,324.118 89.425,323.773 89.918 C 323.428 90.410,322.978 90.710,322.773 90.583 C 322.568 90.456,322.383 90.588,322.362 90.876 C 322.340 91.164,322.115 90.500,321.862 89.400 C 321.532 87.972,321.143 87.287,320.500 87.005 C 319.404 86.524,319.328 86.000,320.355 86.000 C 321.303 86.000,321.737 83.812,320.922 83.135 C 320.624 82.888,320.274 82.793,320.143 82.924 C 319.788 83.279,318.711 82.068,318.986 81.623 C 319.116 81.412,318.869 81.051,318.437 80.820 C 317.453 80.293,316.791 80.277,317.600 80.800 C 318.085 81.114,318.028 81.189,317.300 81.194 C 316.805 81.197,316.400 81.440,316.400 81.733 C 316.400 82.027,316.114 82.267,315.764 82.267 C 315.300 82.267,315.172 81.973,315.289 81.175 C 315.404 80.390,315.300 80.140,314.920 80.286 C 313.502 80.830,310.800 79.970,310.800 78.975 C 310.800 78.060,310.665 78.000,308.600 78.000 C 306.547 78.000,306.400 77.936,306.400 77.044 C 306.400 76.132,306.257 76.080,303.330 75.932 C 301.362 75.833,300.200 75.599,300.094 75.282 C 299.575 73.724,299.013 73.631,290.191 73.642 C 281.935 73.652,281.586 73.684,281.021 74.491 M298.000 90.062 L 298.000 91.324 297.100 90.562 C 296.605 90.143,296.102 89.670,295.983 89.511 C 295.864 89.352,293.074 89.167,289.783 89.100 L 283.800 88.977 290.900 88.888 L 298.000 88.800 298.000 90.062 M253.200 94.599 C 252.906 95.149,252.580 95.513,252.476 95.409 C 252.371 95.305,252.537 94.900,252.843 94.510 C 253.349 93.864,253.337 93.850,252.700 94.349 C 251.548 95.252,252.049 97.154,253.400 97.005 C 254.966 96.832,256.524 94.800,255.091 94.800 C 254.905 94.800,254.863 94.622,254.997 94.405 C 255.142 94.170,254.963 94.116,254.555 94.273 C 254.089 94.451,253.962 94.385,254.158 94.068 C 254.317 93.811,254.287 93.600,254.091 93.600 C 253.895 93.600,253.494 94.050,253.200 94.599 M306.277 96.280 C 305.314 96.530,304.603 98.377,305.244 98.965 C 305.594 99.286,305.639 99.262,305.417 98.870 C 305.172 98.439,305.263 98.433,305.905 98.834 C 306.959 99.492,307.851 99.092,308.088 97.853 C 308.263 96.938,307.778 95.929,307.220 96.046 C 307.099 96.072,306.675 96.177,306.277 96.280 M273.374 98.358 C 273.496 98.555,273.317 98.823,272.977 98.954 C 272.577 99.107,272.458 99.029,272.641 98.734 C 272.804 98.470,272.748 98.385,272.508 98.533 C 271.421 99.205,272.180 101.337,273.530 101.400 C 274.250 101.434,274.948 101.285,275.081 101.069 C 275.223 100.839,275.090 100.797,274.762 100.968 C 274.453 101.128,274.525 100.994,274.922 100.670 C 275.609 100.108,275.594 100.031,274.604 99.040 C 273.577 98.013,272.944 97.662,273.374 98.358 M328.197 98.395 C 328.343 98.631,328.162 98.684,327.751 98.526 C 327.216 98.321,327.121 98.416,327.326 98.951 C 327.484 99.362,327.431 99.543,327.195 99.397 C 326.972 99.259,326.800 99.626,326.800 100.243 C 326.800 100.843,326.912 101.221,327.050 101.084 C 327.187 100.946,327.592 101.180,327.950 101.604 C 328.566 102.334,328.641 102.338,329.400 101.687 C 330.204 100.996,330.571 99.200,329.908 99.200 C 329.713 99.200,329.683 98.989,329.842 98.732 C 330.036 98.417,329.913 98.348,329.466 98.519 C 329.100 98.660,328.800 98.601,328.800 98.387 C 328.800 98.174,328.609 98.000,328.376 98.000 C 328.143 98.000,328.063 98.178,328.197 98.395 M250.578 100.835 C 250.430 101.074,250.293 102.283,250.273 103.520 L 250.236 105.770 251.618 105.766 C 252.482 105.764,252.963 105.582,252.900 105.281 C 252.845 105.017,252.935 104.800,253.100 104.800 C 253.265 104.800,253.400 104.080,253.400 103.200 C 253.400 102.320,253.254 101.600,253.076 101.600 C 252.898 101.600,252.863 101.422,252.997 101.205 C 253.142 100.970,252.963 100.916,252.555 101.073 C 252.089 101.251,251.962 101.185,252.158 100.868 C 252.342 100.570,252.156 100.400,251.647 100.400 C 251.207 100.400,250.726 100.596,250.578 100.835 M310.597 107.195 C 310.743 107.431,310.562 107.484,310.151 107.326 C 309.616 107.121,309.521 107.216,309.726 107.751 C 309.872 108.131,309.858 108.360,309.695 108.259 C 309.533 108.159,309.391 109.048,309.379 110.235 C 309.367 111.421,309.470 112.210,309.607 111.988 C 310.361 110.769,310.810 113.943,310.910 121.200 L 311.018 129.000 311.109 120.933 C 311.174 115.176,311.335 112.822,311.671 112.710 C 312.213 112.529,312.816 108.000,312.297 108.000 C 312.108 108.000,312.063 107.822,312.197 107.605 C 312.342 107.370,312.163 107.316,311.755 107.473 C 311.289 107.651,311.162 107.585,311.358 107.268 C 311.533 106.984,311.392 106.800,311.000 106.800 C 310.644 106.800,310.463 106.978,310.597 107.195 M330.242 109.415 C 329.889 109.768,329.600 110.235,329.600 110.452 C 329.600 110.669,329.420 110.736,329.200 110.600 C 328.567 110.209,328.665 128.273,329.300 129.031 C 330.694 130.696,330.888 130.825,331.379 130.417 C 331.651 130.192,331.980 130.113,332.110 130.243 C 332.240 130.373,332.252 130.122,332.138 129.685 C 332.024 129.248,332.126 128.769,332.365 128.622 C 332.983 128.240,332.971 110.800,332.353 110.800 C 332.097 110.800,332.000 110.443,332.126 109.960 C 332.247 109.499,332.240 109.227,332.110 109.357 C 331.980 109.487,331.651 109.408,331.379 109.183 C 331.030 108.893,330.695 108.962,330.242 109.415 M302.700 155.099 C 306.715 155.165,313.285 155.165,317.300 155.099 C 321.315 155.034,318.030 154.981,310.000 154.981 C 301.970 154.981,298.685 155.034,302.700 155.099 M288.146 160.198 C 288.019 160.526,287.800 160.724,287.658 160.636 C 287.516 160.548,287.400 161.972,287.400 163.800 C 287.400 165.721,287.555 167.028,287.768 166.896 C 287.970 166.771,288.035 166.931,287.912 167.253 C 287.628 167.994,289.065 168.153,289.961 167.480 C 290.608 166.994,290.970 159.846,290.328 160.244 C 290.178 160.337,289.942 160.230,289.804 160.007 C 289.428 159.399,288.407 159.516,288.146 160.198 M329.887 160.397 C 329.580 160.836,329.209 161.076,329.064 160.931 C 328.919 160.786,328.800 172.857,328.800 187.757 C 328.800 208.173,328.914 214.777,329.263 214.561 C 329.583 214.363,329.653 214.553,329.490 215.177 C 329.360 215.673,329.360 215.973,329.490 215.843 C 329.620 215.713,329.968 215.807,330.263 216.052 C 330.658 216.380,330.942 216.380,331.337 216.052 C 331.632 215.807,331.980 215.713,332.110 215.843 C 332.240 215.973,332.247 215.701,332.126 215.240 C 332.000 214.757,332.097 214.400,332.353 214.400 C 333.207 214.400,332.961 162.348,332.100 160.835 C 331.286 159.405,330.668 159.283,329.887 160.397 M309.831 173.287 C 309.474 173.486,309.200 174.163,309.200 174.843 C 309.200 175.661,309.350 175.954,309.668 175.758 C 309.982 175.564,310.053 175.686,309.882 176.130 C 309.726 176.537,309.815 176.754,310.114 176.695 C 310.489 176.622,310.600 180.440,310.600 193.400 C 310.600 206.360,310.489 210.178,310.114 210.105 C 309.815 210.046,309.726 210.263,309.882 210.670 C 310.031 211.059,309.973 211.230,309.740 211.086 C 309.297 210.813,309.298 215.031,309.740 215.473 C 310.167 215.900,311.845 215.858,312.239 215.411 C 312.911 214.646,312.664 211.048,311.900 210.477 C 311.253 209.994,311.200 208.701,311.200 193.400 C 311.200 178.099,311.253 176.806,311.900 176.323 C 312.624 175.782,312.937 174.000,312.308 174.000 C 312.113 174.000,312.063 173.822,312.197 173.605 C 312.342 173.370,312.163 173.316,311.755 173.473 C 311.342 173.631,311.167 173.576,311.317 173.335 C 311.623 172.839,310.685 172.809,309.831 173.287 M250.578 217.235 C 250.430 217.474,250.293 218.683,250.273 219.920 L 250.236 222.170 251.618 222.166 C 252.482 222.164,252.963 221.982,252.900 221.681 C 252.845 221.417,252.936 221.200,253.103 221.200 C 253.969 221.200,253.085 217.537,252.132 217.174 C 250.905 216.708,250.904 216.708,250.578 217.235 M307.600 219.600 C 307.160 220.040,306.803 220.625,306.806 220.900 C 306.810 221.239,306.949 221.207,307.238 220.800 C 307.565 220.341,307.606 220.466,307.416 221.334 C 307.265 222.024,307.320 222.373,307.556 222.227 C 307.770 222.095,308.058 222.170,308.196 222.393 C 308.634 223.103,309.535 222.833,309.844 221.900 C 310.366 220.320,310.288 219.568,309.561 219.179 C 308.601 218.665,308.517 218.683,307.600 219.600 M327.299 221.727 C 327.104 221.987,326.914 222.740,326.877 223.400 C 326.822 224.353,326.897 224.476,327.239 224.000 C 327.593 223.506,327.638 223.545,327.494 224.218 C 327.290 225.167,328.840 225.533,329.504 224.692 C 330.120 223.912,330.331 222.037,329.844 221.673 C 329.165 221.166,327.696 221.197,327.299 221.727 M306.000 223.936 C 305.670 224.324,305.557 224.408,305.749 224.121 C 305.966 223.797,305.931 223.600,305.657 223.600 C 305.001 223.600,304.639 225.524,305.173 226.167 C 305.650 226.742,305.992 226.756,307.459 226.262 C 308.385 225.950,308.334 224.680,307.356 223.700 C 306.735 223.077,306.729 223.078,306.000 223.936 M252.466 226.300 C 251.625 227.925,252.732 229.479,254.178 228.704 C 254.630 228.463,255.081 228.295,255.180 228.332 C 255.481 228.446,255.381 226.616,255.056 226.091 C 254.604 225.359,252.881 225.498,252.466 226.300 M302.006 227.887 C 302.002 228.178,301.730 228.271,301.331 228.118 C 300.818 227.921,300.723 228.022,300.926 228.551 C 301.084 228.962,301.031 229.143,300.795 228.997 C 300.213 228.637,300.313 230.237,300.900 230.676 C 301.874 231.403,303.829 230.685,303.829 229.600 C 303.829 229.160,303.677 228.800,303.491 228.800 C 303.305 228.800,303.281 228.592,303.438 228.338 C 303.624 228.038,303.547 227.986,303.217 228.189 C 302.922 228.372,302.565 228.272,302.361 227.951 C 302.121 227.571,302.010 227.551,302.006 227.887 M285.150 230.200 C 285.123 230.200,285.057 230.860,285.004 231.667 C 284.927 232.841,285.030 233.087,285.519 232.899 C 285.856 232.770,286.029 232.830,285.904 233.032 C 285.770 233.249,287.942 233.400,291.205 233.400 C 294.246 233.400,296.659 233.326,296.569 233.236 C 296.479 233.146,296.792 232.801,297.265 232.470 L 298.124 231.868 297.260 231.168 C 296.784 230.783,296.577 230.408,296.798 230.334 C 297.019 230.260,294.500 230.200,291.200 230.200 C 287.900 230.200,285.178 230.200,285.150 230.200 M267.206 242.100 C 267.202 242.610,267.499 242.787,268.300 242.754 C 269.143 242.718,269.213 242.661,268.600 242.507 C 268.160 242.397,267.668 242.103,267.506 241.854 C 267.320 241.566,267.210 241.656,267.206 242.100 M276.350 247.676 C 275.978 248.608,276.201 250.698,276.654 250.524 C 276.954 250.409,277.200 250.514,277.200 250.757 C 277.200 251.362,278.615 251.318,279.071 250.700 C 280.064 249.356,279.463 247.805,277.900 247.676 C 277.075 247.608,276.378 247.608,276.350 247.676 M302.750 247.800 C 302.723 247.910,302.675 248.135,302.644 248.300 C 302.613 248.465,302.453 248.813,302.287 249.072 C 302.122 249.332,302.173 249.660,302.400 249.800 C 302.627 249.940,302.711 250.221,302.586 250.423 C 302.461 250.625,302.638 250.684,302.979 250.553 C 303.321 250.422,303.600 250.514,303.600 250.757 C 303.600 251.408,305.022 251.296,305.600 250.600 C 305.874 250.270,305.941 249.997,305.749 249.994 C 305.557 249.991,305.670 249.813,306.000 249.600 C 306.379 249.355,306.421 249.210,306.113 249.206 C 305.822 249.202,305.729 248.930,305.882 248.531 C 306.079 248.018,305.978 247.923,305.449 248.126 C 305.038 248.284,304.857 248.231,305.003 247.995 C 305.144 247.768,304.728 247.600,304.024 247.600 C 303.351 247.600,302.778 247.690,302.750 247.800 M288.639 250.063 C 288.837 250.383,288.647 250.453,288.023 250.290 C 287.527 250.160,287.227 250.160,287.357 250.290 C 287.487 250.420,287.393 250.768,287.148 251.063 C 286.820 251.458,286.820 251.742,287.148 252.137 C 287.393 252.432,287.505 252.761,287.398 252.868 C 287.291 252.975,289.013 253.074,291.225 253.088 C 293.437 253.102,295.147 253.014,295.027 252.893 C 294.906 252.772,295.007 252.432,295.252 252.137 C 295.580 251.742,295.580 251.458,295.252 251.063 C 295.007 250.768,294.935 250.398,295.091 250.242 C 295.248 250.086,295.066 250.076,294.688 250.222 C 294.293 250.373,294.000 250.297,294.000 250.043 C 294.000 249.761,292.974 249.600,291.176 249.600 C 289.140 249.600,288.433 249.729,288.639 250.063 M207.097 281.682 C 207.021 283.287,206.958 282.080,206.958 279.000 C 206.957 275.920,207.019 274.607,207.096 276.082 C 207.173 277.558,207.173 280.078,207.097 281.682 M254.626 292.000 C 254.411 292.438,254.681 294.413,254.995 294.697 C 255.178 294.864,255.196 294.730,255.034 294.400 C 254.773 293.867,254.800 293.867,255.270 294.400 C 255.858 295.066,298.400 295.339,298.400 294.676 C 298.400 294.498,298.625 294.482,298.900 294.641 C 299.175 294.799,299.276 294.791,299.126 294.623 C 298.975 294.455,298.998 293.931,299.178 293.459 C 299.381 292.925,299.333 292.449,299.052 292.200 C 298.593 291.794,254.823 291.597,254.626 292.000 M107.200 294.032 C 106.743 294.352,106.838 294.386,107.600 294.173 L 108.600 293.893 107.613 294.701 C 106.813 295.355,106.718 295.619,107.110 296.091 C 107.375 296.411,107.520 296.747,107.430 296.837 C 107.340 296.927,128.627 297.000,154.733 297.000 C 196.443 297.000,202.259 296.927,202.687 296.400 C 203.406 295.515,203.304 294.887,202.394 294.598 C 201.951 294.457,201.692 294.175,201.818 293.971 C 202.155 293.426,107.979 293.487,107.200 294.032 M251.842 296.235 C 251.083 298.213,251.605 468.375,252.372 468.785 C 252.798 469.013,253.530 469.200,253.997 469.200 C 254.465 469.200,254.765 469.335,254.666 469.500 C 254.186 470.293,255.816 470.600,260.500 470.600 C 263.306 470.600,265.601 470.454,265.600 470.276 C 265.600 470.098,265.808 470.081,266.062 470.238 C 266.342 470.411,266.415 470.348,266.249 470.079 C 265.971 469.629,268.117 468.250,268.500 468.633 C 269.107 469.241,269.187 464.662,269.098 434.174 L 269.000 400.800 270.200 400.789 C 270.860 400.782,276.530 400.779,282.800 400.781 C 294.359 400.785,294.861 400.734,295.312 399.513 C 295.719 398.409,304.429 398.274,305.000 399.363 C 305.549 400.410,306.944 400.535,308.052 399.638 C 308.798 399.035,308.881 398.780,308.490 398.309 C 308.225 397.989,308.135 397.598,308.291 397.442 C 308.448 397.286,308.237 397.288,307.822 397.447 C 307.322 397.639,307.160 397.589,307.339 397.298 C 307.488 397.058,307.293 396.769,306.905 396.656 C 306.517 396.544,307.288 396.485,308.617 396.526 C 311.011 396.599,311.033 396.590,310.880 395.554 C 310.657 394.050,312.536 393.690,313.688 395.016 C 314.138 395.533,314.817 395.874,315.236 395.793 C 316.208 395.606,317.281 395.000,317.236 394.664 C 317.126 393.854,317.257 393.647,317.760 393.840 C 318.067 393.958,318.470 393.817,318.653 393.527 C 318.974 393.022,319.039 392.828,319.150 392.049 C 319.178 391.855,319.734 391.476,320.386 391.206 C 321.038 390.936,321.557 390.599,321.538 390.457 C 321.433 389.637,321.668 389.251,322.160 389.440 C 322.851 389.705,323.342 388.959,323.456 387.469 C 323.521 386.614,323.398 386.392,322.950 386.564 C 322.617 386.692,322.465 386.618,322.603 386.395 C 322.737 386.178,322.657 386.000,322.424 386.000 C 322.191 386.000,322.000 385.370,322.000 384.600 C 322.000 383.373,322.124 383.200,323.000 383.200 C 323.945 383.200,324.000 383.080,324.000 381.000 C 324.000 378.815,324.008 378.800,325.218 378.800 C 325.960 378.800,326.410 378.605,326.370 378.300 C 325.975 375.255,326.447 372.475,327.400 372.236 L 328.400 371.985 328.400 348.235 C 328.400 323.317,328.393 323.215,326.764 324.222 C 326.556 324.351,326.400 322.978,326.400 321.024 L 326.400 317.600 325.200 317.600 L 324.000 317.600 324.000 315.000 C 324.000 312.505,324.173 312.162,325.330 312.363 C 325.511 312.394,325.545 312.235,325.406 312.010 C 325.267 311.784,325.323 311.600,325.532 311.600 C 326.006 311.600,325.930 310.347,325.421 309.771 C 324.859 309.133,323.125 309.602,322.902 310.452 C 322.639 311.460,322.000 310.981,322.000 309.776 C 322.000 308.817,321.694 308.637,320.300 308.779 C 319.770 308.833,319.600 308.552,319.600 307.625 C 319.600 306.585,319.449 306.400,318.600 306.400 C 317.800 306.400,317.600 306.200,317.600 305.400 C 317.600 304.556,317.413 304.400,316.400 304.400 C 315.333 304.400,315.200 304.267,315.200 303.200 C 315.200 302.187,315.044 302.000,314.200 302.000 C 313.400 302.000,313.200 301.800,313.200 301.000 C 313.200 300.077,313.057 300.000,311.338 300.000 C 309.591 300.000,309.515 300.043,310.107 300.700 C 310.808 301.476,310.226 302.800,309.184 302.800 C 308.112 302.800,305.924 299.902,306.098 298.714 C 306.244 297.720,306.140 297.600,305.131 297.600 C 304.292 297.600,304.000 297.406,304.000 296.851 C 304.000 295.657,302.465 295.587,276.432 295.606 C 254.961 295.622,252.049 295.696,251.842 296.235 M307.391 297.944 C 307.826 298.126,308.311 298.707,308.469 299.237 C 308.726 300.096,308.748 300.070,308.678 299.000 C 308.615 298.036,308.403 297.782,307.600 297.707 C 306.731 297.626,306.703 297.657,307.391 297.944 M300.000 311.200 C 300.000 311.420,299.822 311.600,299.604 311.600 C 299.386 311.600,299.516 311.960,299.893 312.400 C 300.400 312.993,301.073 313.200,302.489 313.200 C 303.577 313.200,304.400 313.384,304.400 313.627 C 304.400 313.885,304.044 313.944,303.500 313.777 C 303.005 313.625,302.733 313.641,302.897 313.814 C 303.060 313.986,302.988 314.373,302.738 314.675 C 302.233 315.283,303.707 317.238,304.553 317.082 C 304.808 317.035,304.943 317.406,304.867 317.944 C 304.773 318.617,304.878 318.799,305.235 318.578 C 305.576 318.368,305.662 318.460,305.506 318.868 C 305.361 319.245,305.521 319.480,305.938 319.502 C 307.030 319.560,308.353 318.742,308.125 318.149 C 308.009 317.847,308.114 317.600,308.357 317.600 C 308.622 317.600,308.800 318.402,308.800 319.592 C 308.800 321.386,308.900 321.610,309.803 321.837 C 310.992 322.135,311.165 322.730,311.299 327.000 C 311.393 329.978,311.462 330.209,312.300 330.328 L 313.200 330.456 313.200 348.228 L 313.200 366.000 312.254 366.000 C 311.348 366.000,311.306 366.129,311.237 369.084 C 311.156 372.610,310.422 373.291,309.488 370.707 C 309.343 370.305,309.133 370.301,308.481 370.686 C 307.835 371.066,307.618 371.066,307.477 370.686 C 307.379 370.419,307.339 371.010,307.390 372.000 C 307.449 373.156,307.654 373.762,307.963 373.693 C 308.227 373.634,308.716 373.859,309.050 374.193 C 309.384 374.527,309.464 374.800,309.229 374.800 C 308.993 374.800,308.800 375.250,308.800 375.800 C 308.800 376.350,308.609 376.800,308.376 376.800 C 308.143 376.800,308.064 376.620,308.200 376.400 C 308.336 376.180,308.246 376.000,308.000 376.000 C 307.754 376.000,307.663 375.822,307.797 375.605 C 307.942 375.370,307.763 375.316,307.355 375.473 C 306.889 375.651,306.762 375.585,306.958 375.268 C 307.133 374.984,306.992 374.800,306.600 374.800 C 306.244 374.800,306.063 374.978,306.197 375.195 C 306.343 375.431,306.162 375.484,305.751 375.326 C 305.216 375.121,305.121 375.216,305.326 375.751 C 305.493 376.186,305.434 376.345,305.169 376.181 C 304.919 376.026,304.798 376.218,304.873 376.650 C 304.947 377.076,304.749 377.401,304.400 377.430 C 303.006 377.542,302.800 377.622,302.800 378.049 C 302.800 378.358,302.988 378.342,303.403 377.998 C 303.938 377.554,303.938 377.627,303.400 378.649 C 302.836 379.719,302.851 379.847,303.606 380.471 C 304.416 381.141,304.416 381.142,303.509 381.271 C 302.922 381.354,302.555 381.719,302.472 382.300 C 302.331 383.296,302.443 383.261,298.800 383.429 C 294.873 383.610,294.235 383.775,293.805 384.726 C 293.411 385.598,293.381 385.600,280.677 385.600 C 269.034 385.600,267.997 385.545,268.579 384.964 C 269.153 384.389,269.205 380.734,269.108 347.564 L 269.000 310.800 284.500 310.800 C 294.567 310.800,300.000 310.940,300.000 311.200 M270.229 311.829 C 269.474 312.583,269.409 313.829,270.100 314.276 C 271.613 315.256,274.245 313.859,273.218 312.622 C 272.879 312.213,272.895 312.019,273.283 311.843 C 273.567 311.713,273.372 311.715,272.850 311.847 C 272.211 312.007,271.989 311.941,272.174 311.643 C 272.600 310.953,270.947 311.111,270.229 311.829 M297.200 311.638 C 297.660 311.966,297.521 312.014,296.600 311.848 C 295.940 311.729,295.633 311.732,295.917 311.855 C 296.292 312.017,296.316 312.219,296.003 312.597 C 295.689 312.975,295.733 313.276,296.167 313.710 C 296.494 314.037,296.695 314.372,296.612 314.454 C 296.530 314.537,297.034 314.603,297.731 314.602 C 299.563 314.599,300.451 313.332,299.283 312.387 C 298.816 312.009,298.546 311.587,298.684 311.450 C 298.821 311.312,298.408 311.203,297.767 311.206 C 296.832 311.211,296.719 311.297,297.200 311.638 M324.775 314.446 C 324.500 314.960,324.508 315.455,324.800 316.000 C 325.258 316.856,325.819 317.139,325.394 316.300 C 325.255 316.025,325.424 316.149,325.770 316.576 C 326.394 317.345,326.406 317.345,327.030 316.576 C 327.376 316.149,327.528 316.053,327.368 316.362 C 327.197 316.690,327.239 316.823,327.469 316.681 C 327.685 316.548,327.834 315.850,327.800 315.130 C 327.726 313.541,325.526 313.044,324.775 314.446 M268.700 364.930 C 268.640 373.988,268.591 366.460,268.591 348.200 C 268.591 329.940,268.640 322.528,268.700 331.730 C 268.760 340.931,268.760 355.871,268.700 364.930 M327.883 320.403 C 327.451 321.020,327.227 321.110,327.074 320.728 C 326.958 320.438,326.849 320.774,326.832 321.476 C 326.814 322.178,327.016 322.886,327.280 323.049 C 327.930 323.451,329.586 323.501,329.346 323.112 C 329.240 322.940,329.408 322.800,329.721 322.800 C 330.491 322.800,330.140 321.051,329.198 320.199 C 328.532 319.596,328.438 319.610,327.883 320.403 M307.563 322.547 C 307.542 322.576,307.468 323.396,307.397 324.368 C 307.313 325.526,307.393 325.940,307.628 325.568 C 307.836 325.240,307.990 325.194,307.994 325.457 C 308.007 326.473,309.203 326.353,309.706 325.286 C 310.595 323.405,310.366 322.633,308.899 322.559 C 308.185 322.523,307.583 322.518,307.563 322.547 M329.431 331.500 C 329.557 332.011,329.469 332.400,329.227 332.400 C 328.250 332.400,328.679 363.455,329.672 364.597 C 330.806 365.901,331.250 365.859,332.100 364.365 C 332.940 362.889,333.196 333.092,332.373 332.583 C 332.138 332.438,332.057 332.028,332.194 331.672 C 332.330 331.316,332.314 331.152,332.158 331.309 C 332.002 331.465,331.632 331.393,331.337 331.148 C 330.941 330.819,330.652 330.825,330.239 331.168 C 329.808 331.525,329.623 331.513,329.443 331.117 C 329.313 330.833,329.308 331.005,329.431 331.500 M310.254 333.645 C 309.941 334.091,309.621 334.263,309.543 334.027 C 309.464 333.792,309.400 340.152,309.400 348.161 C 309.400 356.170,309.551 362.515,309.735 362.262 C 309.942 361.975,310.003 362.111,309.894 362.618 C 309.685 363.587,311.234 363.923,311.948 363.063 C 312.445 362.464,312.794 333.556,312.300 333.862 C 312.135 333.964,312.000 333.876,312.000 333.666 C 312.000 332.875,310.804 332.860,310.254 333.645 M327.299 373.327 C 327.104 373.587,326.914 374.340,326.877 375.000 C 326.829 375.826,326.918 376.028,327.160 375.647 C 327.437 375.212,327.570 375.276,327.783 375.947 C 328.287 377.533,329.358 376.798,330.140 374.329 C 330.519 373.134,328.086 372.275,327.299 373.327 M299.426 379.643 C 299.611 379.941,299.389 380.007,298.750 379.847 C 298.228 379.715,298.033 379.713,298.317 379.843 C 298.713 380.023,298.725 380.208,298.368 380.639 C 298.025 381.052,298.019 381.341,298.348 381.737 C 298.593 382.032,298.711 382.355,298.611 382.455 C 298.511 382.555,299.098 382.627,299.915 382.616 C 300.762 382.604,301.400 382.395,301.400 382.131 C 301.400 381.875,301.516 381.551,301.658 381.409 C 301.961 381.106,300.150 379.200,299.558 379.200 C 299.335 379.200,299.276 379.399,299.426 379.643 M326.174 379.558 C 326.296 379.755,326.117 380.023,325.777 380.154 C 325.423 380.289,325.263 380.222,325.403 379.995 C 325.537 379.778,325.553 379.600,325.438 379.600 C 324.883 379.600,324.398 381.248,324.755 381.917 C 325.493 383.295,327.772 382.819,327.834 381.274 C 327.863 380.561,327.704 379.864,327.482 379.727 C 327.238 379.576,327.193 379.701,327.368 380.038 C 327.528 380.347,327.401 380.285,327.086 379.900 C 326.498 379.184,325.775 378.912,326.174 379.558 M270.104 382.100 C 269.615 382.719,269.606 384.000,270.090 384.000 C 270.287 384.000,270.339 384.175,270.207 384.388 C 270.075 384.602,270.444 384.896,271.027 385.042 C 271.703 385.212,272.199 385.126,272.398 384.803 C 272.570 384.525,272.915 384.424,273.165 384.578 C 273.429 384.741,273.574 384.637,273.510 384.330 C 273.422 383.907,275.217 383.761,282.400 383.608 L 291.400 383.415 282.400 383.208 C 275.647 383.052,273.424 382.879,273.495 382.514 C 273.554 382.215,273.337 382.126,272.930 382.282 C 272.486 382.453,272.364 382.382,272.558 382.068 C 272.961 381.416,270.619 381.447,270.104 382.100 M298.350 399.391 C 298.323 399.396,298.257 400.060,298.204 400.867 C 298.132 401.968,298.244 402.281,298.654 402.124 C 298.954 402.009,299.200 402.114,299.200 402.357 C 299.200 403.112,300.385 402.846,301.458 401.851 L 302.481 400.902 301.613 400.294 C 301.119 399.948,300.941 399.620,301.199 399.534 C 301.521 399.426,298.879 399.294,298.350 399.391 M268.700 448.500 C 268.639 456.475,268.590 449.950,268.590 434.000 C 268.590 418.050,268.639 411.525,268.700 419.500 C 268.760 427.475,268.760 440.525,268.700 448.500 " stroke="none" fill="#d45820" fill-rule="evenodd"></path><path id="path1" d="M32.390 26.626 C 32.131 27.308,32.139 27.912,32.414 28.426 C 32.896 29.327,367.148 29.684,368.826 28.786 C 369.989 28.164,369.836 26.470,368.574 25.990 C 367.913 25.739,307.953 25.600,200.164 25.600 L 32.780 25.600 32.390 26.626 M29.785 30.100 C 29.681 30.375,29.642 138.600,29.698 270.600 L 29.800 510.600 200.000 510.600 L 370.200 510.600 370.200 270.200 L 370.200 29.800 200.088 29.700 C 64.207 29.619,29.937 29.700,29.785 30.100 M25.990 31.426 C 25.454 32.836,25.454 507.564,25.990 508.974 C 26.470 510.236,28.164 510.389,28.786 509.226 C 29.366 508.142,29.366 32.258,28.786 31.174 C 28.164 30.011,26.470 30.164,25.990 31.426 M371.214 31.174 C 370.634 32.258,370.634 508.142,371.214 509.226 C 371.836 510.389,373.530 510.236,374.010 508.974 C 374.262 508.311,374.400 423.708,374.400 270.200 C 374.400 116.692,374.262 32.089,374.010 31.426 C 373.530 30.164,371.836 30.011,371.214 31.174 M350.543 45.636 C 348.234 46.305,348.382 48.123,350.805 48.849 C 352.627 49.395,354.272 49.063,354.524 48.100 C 354.625 47.715,354.707 147.660,354.707 270.200 C 354.707 392.740,354.625 492.685,354.524 492.300 C 354.424 491.915,354.175 491.598,353.971 491.597 C 353.767 491.595,284.480 491.593,200.000 491.593 C 115.520 491.593,46.233 491.595,46.029 491.597 C 45.825 491.598,45.576 491.915,45.476 492.300 C 45.375 492.685,45.272 392.245,45.246 269.100 L 45.200 45.200 198.500 45.236 C 291.406 45.258,351.305 45.416,350.543 45.636 M354.794 46.100 C 354.789 46.763,354.696 46.856,354.441 46.453 C 354.250 46.152,353.848 45.750,353.547 45.559 C 353.144 45.304,353.237 45.211,353.900 45.206 C 354.570 45.202,354.798 45.430,354.794 46.100 M46.229 46.229 C 44.862 47.595,45.810 48.800,48.251 48.800 C 49.831 48.800,51.200 48.057,51.200 47.200 C 51.200 45.736,47.454 45.004,46.229 46.229 M79.209 70.391 C 78.335 71.265,78.496 72.209,79.621 72.811 C 80.084 73.059,106.250 73.200,151.685 73.200 C 227.996 73.200,224.800 73.279,224.800 71.400 C 224.800 69.521,228.009 69.600,151.511 69.600 C 80.807 69.600,79.991 69.609,79.209 70.391 M288.009 70.391 C 286.067 72.333,289.787 74.272,292.006 72.475 C 292.642 71.960,292.825 71.509,292.638 70.918 C 292.175 69.462,289.269 69.131,288.009 70.391 M187.732 71.500 C 168.114 71.557,135.894 71.557,116.132 71.500 C 96.369 71.443,112.420 71.396,151.800 71.396 C 191.180 71.396,207.349 71.443,187.732 71.500 M277.568 72.128 C 277.842 72.402,278.270 72.396,278.887 72.107 C 279.741 71.708,279.715 71.682,278.481 71.702 C 277.590 71.716,277.294 71.854,277.568 72.128 M301.600 72.111 C 301.600 72.296,301.432 72.344,301.228 72.217 C 301.023 72.091,300.750 72.157,300.621 72.366 C 300.492 72.574,300.557 72.850,300.766 72.979 C 300.974 73.108,301.258 73.030,301.396 72.807 C 301.534 72.583,301.986 72.400,302.400 72.400 C 302.814 72.400,303.263 72.221,303.398 72.003 C 303.541 71.772,303.214 71.641,302.622 71.690 C 302.060 71.736,301.600 71.926,301.600 72.111 M279.600 72.400 C 279.270 72.613,279.206 72.791,279.457 72.794 C 279.709 72.797,280.017 73.069,280.143 73.397 C 280.456 74.211,278.420 75.267,277.514 74.760 C 277.077 74.515,276.756 74.548,276.565 74.857 C 276.393 75.134,276.450 75.217,276.704 75.059 C 276.939 74.914,277.192 74.948,277.266 75.136 C 277.340 75.323,277.910 75.601,278.534 75.754 C 279.278 75.937,279.579 75.889,279.410 75.616 C 279.268 75.387,279.478 75.194,279.876 75.187 C 281.107 75.166,282.139 73.396,281.370 72.627 C 280.643 71.900,280.418 71.871,279.600 72.400 M303.884 72.249 C 303.732 72.402,303.825 72.789,304.092 73.110 C 304.488 73.587,304.358 73.869,303.388 74.645 C 302.488 75.366,302.369 75.597,302.900 75.598 C 303.285 75.599,303.600 75.451,303.600 75.268 C 303.600 75.086,303.981 74.951,304.448 74.968 C 305.596 75.011,306.342 73.831,305.755 72.900 C 305.276 72.139,304.325 71.808,303.884 72.249 M272.353 74.276 C 272.327 74.454,272.327 74.735,272.353 74.900 C 272.379 75.065,272.250 75.200,272.067 75.200 C 271.883 75.200,271.733 75.470,271.733 75.800 C 271.733 76.697,272.141 76.520,272.662 75.397 C 272.928 74.824,272.971 74.305,272.762 74.177 C 272.563 74.054,272.379 74.098,272.353 74.276 M307.829 74.629 C 306.676 75.782,308.211 78.000,310.162 78.000 C 310.533 78.000,310.800 78.334,310.800 78.800 C 310.800 79.707,311.215 79.825,311.920 79.120 C 312.728 78.312,312.471 77.608,310.700 75.774 C 308.786 73.791,308.700 73.757,307.829 74.629 M73.798 272.400 C 73.798 379.650,73.844 423.525,73.900 369.900 C 73.956 316.275,73.956 228.525,73.900 174.900 C 73.844 121.275,73.798 165.150,73.798 272.400 M314.895 78.689 C 313.785 79.087,313.426 80.527,314.488 80.324 C 315.314 80.166,315.437 80.270,315.296 81.012 C 315.191 81.558,315.367 81.979,315.764 82.131 C 316.167 82.286,316.400 82.160,316.400 81.787 C 316.400 81.464,316.749 81.200,317.176 81.200 C 317.603 81.200,318.063 81.022,318.197 80.805 C 318.334 80.583,318.184 80.508,317.857 80.634 C 317.494 80.773,317.173 80.544,317.009 80.029 C 316.711 79.091,315.651 78.418,314.895 78.689 M318.650 81.119 C 318.350 81.604,319.110 82.626,319.478 82.234 C 319.655 82.045,319.574 81.810,319.298 81.711 C 319.021 81.612,318.897 81.367,319.021 81.166 C 319.145 80.965,319.157 80.800,319.047 80.800 C 318.937 80.800,318.758 80.944,318.650 81.119 M320.617 83.172 C 320.491 83.377,320.570 83.658,320.793 83.796 C 321.631 84.313,321.256 85.999,320.300 86.013 C 319.430 86.025,319.436 86.052,320.500 86.846 C 321.105 87.297,321.600 88.011,321.600 88.431 C 321.600 89.155,321.653 89.149,322.600 88.325 C 323.937 87.162,323.863 86.536,322.193 84.914 C 321.419 84.162,320.889 83.379,321.016 83.174 C 321.143 82.968,321.157 82.800,321.047 82.800 C 320.937 82.800,320.744 82.968,320.617 83.172 M259.076 87.478 C 258.963 87.660,259.130 88.163,259.447 88.597 C 260.011 89.367,260.020 89.365,259.889 88.503 C 259.731 87.470,259.365 87.009,259.076 87.478 M256.490 88.361 C 256.551 88.592,256.082 89.201,255.449 89.714 C 254.126 90.786,254.244 92.169,255.697 92.631 C 256.348 92.837,256.775 92.626,257.476 91.751 C 258.180 90.872,258.264 90.571,257.833 90.477 C 257.197 90.339,256.689 89.304,257.005 88.792 C 257.120 88.607,257.026 88.339,256.797 88.198 C 256.568 88.056,256.430 88.130,256.490 88.361 M296.000 89.419 C 296.000 89.540,296.486 90.056,297.080 90.567 L 298.160 91.497 296.861 92.169 C 295.782 92.726,294.577 92.820,289.780 92.720 C 286.600 92.654,283.999 92.750,283.999 92.933 C 284.000 93.529,297.793 93.072,298.540 92.451 C 299.362 91.767,299.390 91.200,298.600 91.200 C 298.261 91.200,298.000 90.842,298.000 90.376 C 298.000 89.923,297.820 89.664,297.600 89.800 C 297.380 89.936,297.200 89.857,297.200 89.624 C 297.200 89.391,296.930 89.200,296.600 89.200 C 296.270 89.200,296.000 89.299,296.000 89.419 M323.300 89.700 C 323.355 89.975,323.162 90.151,322.870 90.090 C 322.579 90.030,322.460 90.173,322.606 90.410 C 322.792 90.711,323.040 90.699,323.436 90.370 C 324.091 89.827,324.179 89.200,323.600 89.200 C 323.380 89.200,323.245 89.425,323.300 89.700 M325.600 91.584 C 325.600 92.033,325.420 92.400,325.200 92.400 C 324.980 92.400,324.800 93.120,324.800 94.000 C 324.800 95.314,324.938 95.600,325.572 95.600 C 326.061 95.600,326.391 95.921,326.472 96.475 C 326.594 97.309,326.632 97.317,327.300 96.646 C 328.163 95.779,328.234 93.069,327.414 92.329 C 325.674 90.760,325.600 90.729,325.600 91.584 M279.298 91.866 C 278.951 92.005,279.068 92.289,279.675 92.780 L 280.554 93.492 278.877 94.551 C 277.955 95.134,277.200 95.702,277.200 95.814 C 277.200 95.927,277.619 95.744,278.132 95.408 C 278.644 95.072,279.171 94.904,279.302 95.035 C 279.715 95.448,281.184 94.778,281.610 93.982 C 281.928 93.387,281.839 93.039,281.209 92.409 C 280.378 91.578,280.163 91.517,279.298 91.866 M303.600 93.800 C 303.190 94.878,302.078 95.115,301.256 94.300 C 300.852 93.899,300.805 93.939,301.019 94.500 C 301.166 94.885,301.452 95.200,301.656 95.200 C 301.860 95.200,302.682 95.856,303.483 96.657 C 304.887 98.060,304.952 98.082,305.257 97.257 C 305.432 96.786,305.861 96.400,306.211 96.400 C 306.561 96.400,306.734 96.217,306.596 95.993 C 306.458 95.770,306.190 95.683,306.000 95.800 C 305.810 95.917,305.525 95.802,305.366 95.545 C 305.185 95.252,305.250 95.184,305.538 95.362 C 306.207 95.775,306.106 94.986,305.418 94.415 C 305.097 94.149,304.657 94.041,304.438 94.176 C 304.211 94.317,304.108 94.076,304.198 93.611 C 304.415 92.483,304.058 92.596,303.600 93.800 M253.200 93.933 C 253.200 94.190,253.065 94.355,252.900 94.300 C 252.572 94.191,252.400 94.531,252.400 95.289 C 252.400 95.558,252.688 95.366,253.041 94.863 C 253.393 94.360,253.573 93.840,253.441 93.707 C 253.308 93.575,253.200 93.677,253.200 93.933 M252.233 96.346 C 252.098 96.565,252.170 96.858,252.393 96.996 C 252.617 97.134,252.803 97.102,252.806 96.924 C 252.809 96.746,252.977 96.860,253.177 97.177 C 253.479 97.654,253.731 97.669,254.623 97.262 C 255.217 96.992,255.604 96.670,255.482 96.548 C 255.360 96.426,254.932 96.510,254.530 96.735 C 253.993 97.036,253.627 96.986,253.140 96.546 C 252.734 96.178,252.385 96.101,252.233 96.346 M274.233 96.346 C 274.098 96.565,274.170 96.858,274.393 96.996 C 274.617 97.134,274.803 97.102,274.806 96.924 C 274.809 96.746,274.977 96.860,275.177 97.177 C 275.479 97.654,275.731 97.669,276.623 97.262 C 277.217 96.992,277.604 96.670,277.482 96.548 C 277.360 96.426,276.932 96.510,276.530 96.735 C 275.993 97.036,275.627 96.986,275.140 96.546 C 274.734 96.178,274.385 96.101,274.233 96.346 M307.434 96.346 C 307.298 96.565,307.370 96.858,307.593 96.996 C 308.234 97.392,308.068 98.799,307.347 99.076 C 306.988 99.213,306.365 99.120,305.962 98.869 C 305.394 98.514,305.273 98.524,305.422 98.914 C 305.529 99.191,306.005 99.593,306.482 99.808 C 306.958 100.024,307.428 100.450,307.526 100.756 C 307.633 101.090,307.525 101.201,307.255 101.034 C 306.961 100.852,306.835 101.109,306.890 101.778 C 306.936 102.340,307.126 102.800,307.311 102.800 C 307.496 102.800,307.544 102.968,307.417 103.172 C 307.291 103.377,307.357 103.650,307.566 103.779 C 307.774 103.908,308.050 103.843,308.179 103.634 C 308.308 103.426,308.230 103.142,308.007 103.004 C 307.398 102.628,307.516 101.341,308.225 100.633 C 308.806 100.051,308.812 99.439,308.263 96.912 C 308.101 96.168,307.709 95.900,307.434 96.346 M274.032 98.251 C 273.991 98.834,275.140 99.793,275.476 99.457 C 275.618 99.316,275.513 99.200,275.243 99.200 C 274.973 99.200,274.881 98.992,275.038 98.738 C 275.207 98.465,275.149 98.384,274.896 98.541 C 274.661 98.686,274.377 98.579,274.266 98.302 C 274.140 97.989,274.051 97.970,274.032 98.251 M309.738 100.997 C 310.268 102.140,310.616 102.256,310.945 101.400 C 311.087 101.028,310.943 100.800,310.564 100.800 C 310.228 100.800,310.064 100.620,310.200 100.400 C 310.336 100.180,310.184 100.000,309.861 100.000 C 309.380 100.000,309.358 100.178,309.738 100.997 M250.353 100.676 C 250.327 100.854,250.327 101.135,250.353 101.300 C 250.379 101.465,250.220 101.600,250.000 101.600 C 249.780 101.600,249.600 102.320,249.600 103.200 C 249.600 104.080,249.780 104.800,250.000 104.800 C 250.220 104.800,250.400 104.116,250.400 103.280 C 250.400 102.444,250.596 101.564,250.835 101.325 C 251.148 101.012,251.148 100.815,250.835 100.622 C 250.596 100.474,250.379 100.498,250.353 100.676 M274.407 100.992 C 274.024 101.453,273.726 101.486,273.058 101.145 C 272.244 100.729,272.235 100.743,272.880 101.419 C 273.407 101.971,273.685 102.028,274.117 101.669 C 274.423 101.415,274.821 101.340,275.001 101.503 C 275.181 101.667,275.208 101.590,275.062 101.334 C 274.915 101.078,275.021 100.777,275.298 100.666 C 275.611 100.540,275.630 100.451,275.349 100.432 C 275.101 100.414,274.677 100.666,274.407 100.992 M327.064 101.069 C 326.702 101.431,326.730 102.411,327.100 102.353 C 327.925 102.222,328.400 102.459,328.400 103.000 C 328.400 103.970,329.577 103.687,330.074 102.598 C 330.659 101.313,330.223 100.874,329.243 101.761 C 328.519 102.416,328.452 102.410,327.905 101.628 C 327.588 101.175,327.209 100.924,327.064 101.069 M253.293 103.200 C 253.293 103.970,253.375 104.285,253.476 103.900 C 253.576 103.515,253.576 102.885,253.476 102.500 C 253.375 102.115,253.293 102.430,253.293 103.200 M223.600 102.730 C 223.600 102.959,223.960 103.260,224.400 103.400 C 225.386 103.713,225.449 104.993,224.500 105.457 C 224.115 105.646,196.890 105.891,164.000 106.003 L 104.200 106.205 164.076 106.303 C 201.850 106.364,224.040 106.259,224.189 106.017 C 224.319 105.807,224.692 105.737,225.018 105.862 C 226.338 106.369,227.411 104.205,226.298 103.281 C 225.526 102.641,223.600 102.247,223.600 102.730 M271.824 103.067 C 272.225 103.360,272.706 103.600,272.892 103.600 C 273.079 103.600,273.007 103.360,272.733 103.067 C 272.459 102.773,271.978 102.533,271.665 102.533 C 271.250 102.533,271.294 102.679,271.824 103.067 M272.867 105.476 C 272.830 106.398,272.620 107.264,272.400 107.400 C 272.180 107.536,272.000 107.857,272.000 108.113 C 272.000 108.369,272.281 108.177,272.624 107.687 C 273.014 107.131,273.189 106.234,273.091 105.298 L 272.934 103.800 272.867 105.476 M269.693 105.600 C 269.693 106.370,269.775 106.685,269.876 106.300 C 269.976 105.915,269.976 105.285,269.876 104.900 C 269.775 104.515,269.693 104.830,269.693 105.600 M250.897 105.836 C 251.316 106.275,251.718 106.413,251.904 106.183 C 252.074 105.972,252.142 105.839,252.054 105.886 C 251.966 105.933,251.513 105.777,251.047 105.539 C 250.237 105.125,250.230 105.138,250.897 105.836 M329.681 107.702 C 329.008 108.513,328.692 110.286,329.168 110.580 C 329.405 110.727,329.600 110.669,329.600 110.452 C 329.600 110.235,329.889 109.768,330.242 109.415 C 330.951 108.706,332.000 109.204,332.000 110.249 C 332.000 110.552,332.180 110.800,332.400 110.800 C 332.909 110.800,332.921 110.122,332.417 109.811 C 332.207 109.681,332.137 109.308,332.262 108.982 C 332.769 107.662,330.605 106.589,329.681 107.702 M312.493 110.071 C 312.442 111.101,312.130 112.213,311.800 112.543 C 311.314 113.029,311.183 114.645,311.109 121.071 L 311.018 129.000 310.910 121.200 C 310.805 113.636,310.373 110.772,309.534 112.092 C 309.052 112.852,309.124 128.311,309.614 129.226 C 310.157 130.240,311.847 130.232,312.393 129.213 C 312.665 128.705,312.773 124.845,312.700 118.313 C 312.637 112.751,312.544 109.042,312.493 110.071 M309.293 110.000 C 309.293 110.770,309.375 111.085,309.476 110.700 C 309.576 110.315,309.576 109.685,309.476 109.300 C 309.375 108.915,309.293 109.230,309.293 110.000 M248.480 112.080 C 247.511 113.049,247.817 210.674,248.791 211.195 C 249.419 211.531,249.748 211.452,250.391 210.809 C 251.322 209.878,251.706 114.093,250.786 112.374 C 250.319 111.502,249.201 111.359,248.480 112.080 M332.036 129.306 C 331.426 130.911,329.600 130.810,329.600 129.171 C 329.600 128.967,329.420 128.800,329.200 128.800 C 328.980 128.800,328.800 129.070,328.800 129.400 C 328.800 129.730,328.963 130.000,329.163 130.000 C 329.362 130.000,329.435 130.345,329.325 130.766 C 329.195 131.264,329.407 131.683,329.933 131.964 C 330.826 132.442,331.966 132.170,332.061 131.457 C 332.179 130.573,332.280 130.193,332.588 129.483 C 332.759 129.088,332.792 128.658,332.661 128.527 C 332.530 128.396,332.248 128.747,332.036 129.306 M294.629 153.829 C 293.877 154.580,293.828 155.268,294.480 155.920 C 294.988 156.428,323.679 156.651,324.967 156.157 C 325.713 155.871,325.806 154.366,325.120 153.680 C 324.305 152.865,295.452 153.006,294.629 153.829 M317.300 155.099 C 313.285 155.165,306.715 155.165,302.700 155.099 C 298.685 155.034,301.970 154.981,310.000 154.981 C 318.030 154.981,321.315 155.034,317.300 155.099 M288.015 158.182 C 287.749 158.503,287.664 158.981,287.827 159.244 C 288.015 159.548,287.954 159.619,287.662 159.438 C 287.397 159.275,287.200 159.391,287.200 159.710 C 287.200 160.644,287.692 160.826,288.236 160.094 C 288.665 159.516,288.885 159.482,289.557 159.892 C 290.665 160.568,291.042 159.829,290.225 158.582 C 289.496 157.469,288.723 157.329,288.015 158.182 M329.811 158.142 C 329.374 158.462,329.169 158.944,329.313 159.316 C 329.446 159.664,329.353 160.016,329.107 160.098 C 328.855 160.182,328.795 160.469,328.971 160.753 C 329.204 161.131,329.431 161.048,329.864 160.429 C 330.649 159.309,331.374 159.386,331.951 160.652 C 332.476 161.805,333.087 161.677,332.594 160.517 C 332.426 160.123,332.253 159.468,332.209 159.063 C 332.066 157.751,330.938 157.318,329.811 158.142 M290.537 163.800 C 290.539 165.560,290.609 166.230,290.693 165.289 C 290.778 164.349,290.777 162.909,290.691 162.089 C 290.605 161.270,290.536 162.040,290.537 163.800 M287.324 163.800 C 287.326 165.120,287.401 165.612,287.490 164.893 C 287.579 164.174,287.577 163.094,287.486 162.493 C 287.395 161.892,287.322 162.480,287.324 163.800 M287.458 167.107 C 287.337 167.302,287.339 167.846,287.462 168.317 C 287.873 169.886,290.125 169.897,290.621 168.333 C 290.964 167.253,290.644 167.043,289.615 167.672 C 288.868 168.129,288.679 168.102,288.214 167.476 C 287.919 167.078,287.578 166.912,287.458 167.107 M291.812 171.181 C 291.669 171.411,291.608 171.613,291.676 171.630 C 292.430 171.811,293.712 171.991,293.576 171.896 C 293.479 171.829,293.101 171.546,292.736 171.267 C 292.287 170.925,291.987 170.897,291.812 171.181 M310.225 173.158 C 310.334 173.267,310.643 173.394,310.912 173.440 C 311.180 173.485,311.754 173.664,312.187 173.837 C 312.871 174.111,312.901 174.074,312.417 173.556 C 312.111 173.228,311.448 172.960,310.943 172.960 C 310.439 172.960,310.116 173.049,310.225 173.158 M309.467 175.867 C 308.960 176.374,309.156 210.726,309.668 211.042 C 309.982 211.236,310.053 211.114,309.882 210.670 C 309.726 210.263,309.815 210.046,310.114 210.105 C 310.489 210.178,310.600 206.360,310.600 193.400 C 310.600 180.440,310.489 176.622,310.114 176.695 C 309.834 176.750,309.725 176.539,309.857 176.195 C 310.097 175.569,309.916 175.417,309.467 175.867 M311.680 176.480 C 311.322 176.838,311.200 181.147,311.200 193.400 C 311.200 209.654,311.284 210.800,312.480 210.800 C 312.656 210.800,312.800 202.970,312.800 193.400 C 312.800 183.830,312.656 176.000,312.480 176.000 C 312.304 176.000,311.944 176.216,311.680 176.480 M267.859 208.305 C 267.751 208.479,268.021 209.067,268.458 209.611 C 269.101 210.410,269.174 210.437,268.841 209.753 C 268.614 209.287,268.524 208.810,268.641 208.693 C 268.758 208.576,268.674 208.369,268.454 208.234 C 268.235 208.098,267.967 208.130,267.859 208.305 M312.514 213.000 C 312.517 214.100,312.595 214.503,312.687 213.895 C 312.779 213.286,312.777 212.386,312.682 211.895 C 312.587 211.403,312.511 211.900,312.514 213.000 M309.293 213.200 C 309.293 213.970,309.375 214.285,309.476 213.900 C 309.576 213.515,309.576 212.885,309.476 212.500 C 309.375 212.115,309.293 212.430,309.293 213.200 M328.975 214.841 C 328.795 215.132,328.852 215.417,329.107 215.502 C 329.353 215.584,329.455 215.912,329.333 216.231 C 329.042 216.989,329.900 218.000,330.835 218.000 C 331.625 218.000,332.584 216.621,332.212 216.019 C 332.088 215.819,332.170 215.542,332.393 215.404 C 332.868 215.111,332.940 214.400,332.495 214.400 C 332.327 214.400,332.012 214.805,331.795 215.300 C 331.284 216.465,330.348 216.449,329.757 215.265 C 329.416 214.580,329.206 214.467,328.975 214.841 M270.165 215.797 C 269.294 217.127,269.735 218.556,270.625 217.286 C 271.400 216.179,272.304 216.543,272.751 218.143 C 273.095 219.369,273.103 219.357,273.104 217.681 C 273.106 214.951,271.425 213.874,270.165 215.797 M251.867 216.267 C 251.395 216.738,251.580 217.101,252.400 217.316 C 253.042 217.484,253.200 217.862,253.200 219.229 C 253.200 221.447,253.423 221.140,253.766 218.448 C 254.026 216.413,253.997 216.308,253.220 216.511 C 252.768 216.629,252.500 216.562,252.623 216.363 C 252.881 215.945,252.266 215.867,251.867 216.267 M250.353 217.076 C 250.327 217.254,250.327 217.535,250.353 217.700 C 250.379 217.865,250.220 218.000,250.000 218.000 C 249.780 218.000,249.600 218.720,249.600 219.600 C 249.600 220.480,249.780 221.200,250.000 221.200 C 250.220 221.200,250.400 220.516,250.400 219.680 C 250.400 218.844,250.596 217.964,250.835 217.725 C 251.148 217.412,251.148 217.215,250.835 217.022 C 250.596 216.874,250.379 216.898,250.353 217.076 M309.850 219.519 C 309.742 219.695,309.804 220.083,309.989 220.382 C 310.180 220.691,310.141 221.331,309.898 221.863 C 309.454 222.838,308.629 223.095,308.196 222.393 C 308.058 222.170,307.777 222.091,307.572 222.217 C 307.088 222.516,307.088 224.000,307.572 224.000 C 307.777 224.000,308.020 224.405,308.112 224.900 C 308.256 225.676,308.322 225.621,308.590 224.500 C 308.760 223.785,309.153 223.200,309.463 223.200 C 309.772 223.200,310.128 222.931,310.254 222.602 C 310.381 222.274,310.612 222.084,310.770 222.181 C 310.927 222.278,310.977 221.827,310.882 221.179 C 310.787 220.530,310.539 220.000,310.331 220.000 C 310.123 220.000,310.064 219.820,310.200 219.600 C 310.336 219.380,310.357 219.200,310.247 219.200 C 310.137 219.200,309.958 219.344,309.850 219.519 M306.942 221.036 C 306.911 221.563,307.046 221.895,307.242 221.774 C 307.677 221.505,307.715 220.518,307.300 220.262 C 307.135 220.160,306.974 220.508,306.942 221.036 M272.353 221.476 C 272.327 221.654,272.327 221.935,272.353 222.100 C 272.379 222.265,272.220 222.400,272.000 222.400 C 271.780 222.400,271.600 222.760,271.600 223.200 C 271.600 223.640,271.780 224.000,272.000 224.000 C 272.220 224.000,272.400 223.676,272.400 223.280 C 272.400 222.884,272.596 222.364,272.835 222.125 C 273.148 221.812,273.148 221.615,272.835 221.422 C 272.596 221.274,272.379 221.298,272.353 221.476 M329.417 221.572 C 329.291 221.777,329.370 222.058,329.593 222.196 C 330.171 222.553,330.097 224.221,329.482 224.732 C 328.585 225.476,327.297 225.148,327.469 224.219 C 327.606 223.478,327.576 223.486,327.149 224.301 C 326.640 225.273,327.550 226.800,328.639 226.800 C 329.935 226.800,331.090 222.873,329.993 222.196 C 329.770 222.058,329.691 221.777,329.817 221.572 C 329.944 221.368,329.957 221.200,329.847 221.200 C 329.737 221.200,329.544 221.368,329.417 221.572 M250.749 222.135 C 251.380 222.900,252.400 223.023,252.400 222.333 C 252.400 222.077,252.286 221.980,252.147 222.119 C 252.008 222.258,251.513 222.169,251.047 221.920 C 250.284 221.514,250.254 221.535,250.749 222.135 M275.058 222.608 C 275.200 222.977,274.948 223.745,274.475 224.384 C 274.017 225.003,273.672 225.890,273.707 226.355 C 273.780 227.324,274.400 227.521,274.400 226.575 C 274.400 225.500,276.883 226.003,277.485 227.200 C 277.791 227.808,277.991 227.953,277.994 227.570 C 278.002 226.726,276.174 225.045,275.620 225.388 C 275.315 225.576,275.258 225.178,275.434 224.080 C 275.590 223.101,275.519 222.397,275.248 222.229 C 274.969 222.057,274.900 222.195,275.058 222.608 M254.690 225.843 C 254.556 225.977,254.651 226.412,254.899 226.811 C 255.435 227.668,254.615 228.968,253.749 228.636 C 253.461 228.525,253.143 228.569,253.042 228.733 C 252.940 228.896,253.295 229.066,253.829 229.111 C 254.363 229.155,254.800 229.002,254.800 228.772 C 254.800 228.541,254.956 228.449,255.147 228.567 C 255.338 228.685,255.473 228.171,255.447 227.424 C 255.398 226.019,255.112 225.421,254.690 225.843 M307.219 226.380 C 306.900 226.582,306.495 226.658,306.319 226.550 C 306.144 226.442,306.000 226.543,306.000 226.776 C 306.000 227.382,306.916 227.299,307.824 226.613 C 308.667 225.975,308.165 225.781,307.219 226.380 M278.400 227.973 C 278.400 228.178,278.743 228.455,279.163 228.588 C 280.467 229.002,280.478 229.939,279.186 230.607 C 277.783 231.333,277.746 231.440,278.801 231.716 C 279.241 231.831,279.500 231.762,279.377 231.563 C 279.254 231.363,279.496 231.200,279.914 231.200 C 280.919 231.200,282.083 229.882,281.779 229.089 C 281.503 228.370,280.500 227.891,279.964 228.222 C 279.764 228.346,279.600 228.257,279.600 228.024 C 279.600 227.791,279.330 227.600,279.000 227.600 C 278.670 227.600,278.400 227.768,278.400 227.973 M302.400 227.957 C 302.400 228.154,302.685 228.424,303.033 228.557 C 304.011 228.933,304.108 228.851,303.457 228.200 C 302.777 227.520,302.400 227.433,302.400 227.957 M324.786 229.220 C 324.308 229.891,324.001 230.761,324.104 231.154 C 324.254 231.729,324.099 231.831,323.302 231.679 C 322.167 231.462,322.590 232.880,323.798 233.344 C 324.416 233.581,326.000 232.346,326.000 231.627 C 326.000 231.422,326.351 231.143,326.780 231.006 C 328.424 230.484,328.093 228.000,326.378 228.000 C 325.980 228.000,325.264 228.549,324.786 229.220 M254.753 230.276 C 254.727 230.454,254.727 230.735,254.753 230.900 C 254.779 231.065,254.620 231.200,254.400 231.200 C 254.180 231.200,254.000 231.470,254.000 231.800 C 254.000 232.130,254.180 232.400,254.400 232.400 C 254.620 232.400,254.755 232.601,254.700 232.847 C 254.611 233.245,255.346 233.564,256.644 233.690 C 256.889 233.714,257.069 233.993,257.044 234.311 C 256.953 235.504,258.318 235.860,259.283 234.894 C 260.174 234.004,260.174 234.000,259.339 234.000 C 258.717 234.000,258.427 233.664,258.219 232.700 C 257.953 231.469,257.919 231.448,257.582 232.300 C 257.169 233.344,255.932 233.482,255.173 232.568 C 254.765 232.076,254.753 231.768,255.116 231.186 C 255.412 230.711,255.440 230.348,255.192 230.195 C 254.976 230.062,254.779 230.098,254.753 230.276 M283.609 230.791 C 282.747 231.653,282.894 232.608,283.979 233.189 C 285.268 233.879,298.000 233.656,298.000 232.943 C 298.000 232.603,298.348 232.234,298.772 232.123 C 299.671 231.888,299.464 230.970,298.382 230.390 C 297.123 229.716,296.246 230.347,297.279 231.183 L 298.146 231.886 297.106 232.567 C 295.249 233.784,284.992 233.416,284.886 232.129 C 284.840 231.571,285.069 231.072,285.437 230.931 C 285.945 230.736,285.964 230.623,285.534 230.350 C 284.751 229.854,284.485 229.915,283.609 230.791 M288.900 230.296 C 290.165 230.375,292.235 230.375,293.500 230.296 C 294.765 230.216,293.730 230.151,291.200 230.151 C 288.670 230.151,287.635 230.216,288.900 230.296 M302.819 230.780 C 302.500 230.982,302.095 231.058,301.919 230.950 C 301.744 230.842,301.600 230.933,301.600 231.153 C 301.600 231.922,302.230 231.931,303.211 231.178 C 304.208 230.412,303.898 230.097,302.819 230.780 M259.788 236.977 C 258.542 237.971,258.668 239.377,260.043 239.814 C 260.485 239.954,261.011 240.503,261.213 241.034 C 261.415 241.565,261.859 242.000,262.199 242.000 C 262.539 242.000,263.018 242.440,263.263 242.978 C 264.042 244.689,266.400 244.565,266.400 242.813 C 266.400 242.062,264.492 240.400,263.628 240.400 C 263.169 240.400,262.291 238.546,262.523 238.066 C 262.594 237.920,262.253 237.419,261.765 236.954 L 260.878 236.108 259.788 236.977 M320.000 239.800 C 319.359 240.166,319.224 240.377,319.624 240.386 C 319.966 240.394,320.596 240.136,321.024 239.813 C 322.018 239.061,321.309 239.052,320.000 239.800 M312.475 243.616 C 311.457 244.564,311.365 245.307,312.181 245.984 C 313.615 247.174,315.323 245.524,314.414 243.826 C 313.751 242.588,313.597 242.571,312.475 243.616 M268.164 243.541 C 268.324 243.801,268.175 244.111,267.825 244.246 C 267.140 244.509,266.958 245.600,267.600 245.600 C 267.820 245.600,267.955 245.762,267.900 245.960 C 267.845 246.158,267.935 246.338,268.100 246.360 C 268.494 246.413,268.502 246.330,268.181 245.495 C 268.032 245.107,268.119 244.538,268.375 244.231 C 268.728 243.805,268.724 243.600,268.358 243.374 C 268.051 243.185,267.981 243.245,268.164 243.541 M315.776 244.180 C 315.027 244.740,315.032 244.752,315.906 244.532 C 316.405 244.406,316.910 244.145,317.030 243.952 C 317.368 243.404,316.636 243.538,315.776 244.180 M270.832 245.273 C 270.814 245.643,270.437 246.061,269.994 246.202 C 269.551 246.343,269.293 246.628,269.422 246.835 C 269.550 247.043,269.803 247.122,269.982 247.011 C 270.162 246.900,270.285 247.097,270.255 247.449 C 270.151 248.661,271.490 249.087,272.435 248.143 C 273.355 247.222,272.963 245.600,271.819 245.600 C 271.515 245.600,271.176 245.375,271.065 245.100 C 270.940 244.791,270.851 244.857,270.832 245.273 M309.232 245.369 C 309.214 245.571,309.498 246.066,309.862 246.469 C 310.827 247.535,309.558 249.009,308.250 248.340 C 307.439 247.926,307.432 247.940,308.092 248.631 C 308.758 249.328,308.821 249.320,309.792 248.408 C 310.827 247.435,311.129 246.400,310.376 246.400 C 310.143 246.400,310.081 246.192,310.238 245.938 C 310.407 245.665,310.349 245.584,310.096 245.741 C 309.861 245.886,309.577 245.779,309.466 245.502 C 309.354 245.226,309.249 245.166,309.232 245.369 M274.809 248.391 C 273.861 249.339,274.130 250.317,275.481 250.831 C 276.756 251.316,277.200 251.297,277.200 250.757 C 277.200 250.514,276.968 250.404,276.684 250.513 C 276.360 250.637,276.137 250.349,276.087 249.742 C 276.040 249.171,276.266 248.673,276.637 248.531 C 277.145 248.336,277.164 248.223,276.734 247.950 C 275.951 247.454,275.685 247.515,274.809 248.391 M301.314 248.549 C 300.589 249.313,300.516 249.601,300.914 250.120 C 301.547 250.949,303.600 251.469,303.600 250.801 C 303.600 250.505,303.330 250.418,302.912 250.578 C 302.534 250.724,302.352 250.714,302.509 250.558 C 302.665 250.402,302.606 250.048,302.377 249.773 C 302.076 249.409,302.191 249.112,302.799 248.686 C 303.529 248.175,303.553 248.067,302.985 247.850 C 302.167 247.536,302.344 247.462,301.314 248.549 M279.569 248.500 C 279.316 249.328,279.346 250.000,279.635 250.000 C 279.836 250.000,280.000 249.640,280.000 249.200 C 280.000 248.557,279.701 248.071,279.569 248.500 M286.200 249.870 C 283.598 250.194,283.200 250.392,283.200 251.359 C 283.200 252.676,284.043 253.236,286.065 253.265 C 296.018 253.403,297.200 253.229,297.200 251.625 C 297.200 250.730,296.536 250.150,295.098 249.789 C 294.352 249.602,294.000 249.669,294.000 249.999 C 294.000 250.295,294.270 250.382,294.688 250.222 C 295.066 250.076,295.248 250.086,295.091 250.242 C 294.935 250.398,295.025 250.789,295.290 251.109 C 295.682 251.581,295.588 251.842,294.794 252.485 C 292.744 254.145,285.665 252.850,287.131 251.083 C 287.385 250.777,287.487 250.420,287.357 250.290 C 287.227 250.160,287.527 250.160,288.023 250.290 C 288.647 250.453,288.837 250.383,288.639 250.063 C 288.482 249.808,288.138 249.627,287.876 249.660 C 287.614 249.693,286.860 249.787,286.200 249.870 M250.482 259.278 C 249.828 259.932,249.876 260.619,250.629 261.371 C 251.190 261.933,254.929 262.000,285.780 262.000 C 323.124 262.000,321.439 262.099,321.131 259.922 L 321.000 259.000 285.982 258.898 C 259.078 258.819,250.853 258.907,250.482 259.278 M104.400 260.800 C 104.400 261.065,121.208 261.200,154.024 261.200 C 187.004 261.200,203.564 261.066,203.400 260.800 C 203.237 260.537,186.263 260.400,153.776 260.400 C 121.125 260.400,104.400 260.535,104.400 260.800 M248.713 262.685 C 247.855 262.816,247.576 263.123,247.383 264.152 C 247.039 265.985,247.330 277.066,247.733 277.468 C 248.095 277.828,321.643 278.168,323.068 277.816 C 324.244 277.525,324.543 263.094,323.381 262.648 C 322.678 262.378,250.494 262.414,248.713 262.685 M129.100 264.300 C 142.795 264.358,165.205 264.358,178.900 264.300 C 192.595 264.242,181.390 264.194,154.000 264.194 C 126.610 264.194,115.405 264.242,129.100 264.300 M205.200 264.902 C 205.200 264.983,205.768 265.579,206.462 266.225 C 207.156 266.871,207.564 267.130,207.368 266.800 C 207.172 266.470,207.009 266.020,207.006 265.800 C 207.003 265.580,206.820 265.397,206.600 265.394 C 206.380 265.391,205.975 265.245,205.700 265.070 C 205.425 264.896,205.200 264.820,205.200 264.902 M250.629 279.029 C 249.856 279.801,249.826 280.558,250.544 281.153 C 250.940 281.482,260.549 281.577,286.044 281.502 L 321.000 281.400 321.131 280.478 C 321.439 278.301,323.124 278.400,285.780 278.400 C 254.929 278.400,251.190 278.467,250.629 279.029 M205.787 291.400 C 205.684 291.730,205.500 292.311,205.378 292.691 C 205.210 293.211,205.407 293.145,206.178 292.421 C 206.740 291.893,207.200 291.312,207.200 291.130 C 207.200 290.546,205.982 290.779,205.787 291.400 M255.600 291.600 C 255.600 291.862,263.008 292.000,277.024 292.000 C 291.204 292.000,298.364 291.865,298.200 291.600 C 298.040 291.341,290.463 291.200,276.776 291.200 C 262.925 291.200,255.600 291.338,255.600 291.600 M254.000 293.176 C 254.000 293.383,254.183 293.666,254.407 293.804 C 254.630 293.942,254.692 294.251,254.545 294.489 C 254.385 294.749,254.463 294.809,254.738 294.638 C 254.992 294.481,255.200 294.573,255.200 294.843 C 255.200 295.113,255.288 295.245,255.396 295.138 C 255.656 294.878,254.684 292.807,254.300 292.803 C 254.135 292.801,254.000 292.969,254.000 293.176 M299.084 293.400 C 298.927 293.840,298.681 294.467,298.535 294.793 C 298.347 295.216,298.470 295.187,298.965 294.692 C 299.346 294.311,299.593 293.684,299.513 293.299 C 299.384 292.681,299.335 292.692,299.084 293.400 M105.247 293.962 C 104.813 294.237,104.877 294.371,105.547 294.583 C 106.455 294.871,106.686 295.776,105.965 296.222 C 105.298 296.634,106.218 297.356,107.018 297.048 C 107.586 296.830,107.608 296.692,107.158 296.149 C 106.705 295.603,106.756 295.403,107.507 294.795 C 108.267 294.179,108.300 294.047,107.744 293.834 C 107.389 293.698,106.817 293.814,106.473 294.093 C 105.983 294.489,105.912 294.491,106.147 294.100 C 106.494 293.522,106.049 293.454,105.247 293.962 M201.818 293.971 C 201.692 294.175,201.951 294.457,202.394 294.598 C 203.244 294.868,203.476 295.782,202.800 296.200 C 202.227 296.554,202.306 297.200,202.924 297.200 C 203.211 297.200,203.778 296.958,204.183 296.662 C 205.219 295.905,204.726 293.822,203.581 294.121 C 203.151 294.233,202.900 294.162,203.023 293.963 C 203.146 293.763,202.977 293.600,202.647 293.600 C 202.317 293.600,201.944 293.767,201.818 293.971 M302.875 295.000 L 302.005 296.000 303.003 296.000 C 303.709 296.000,304.000 296.217,304.000 296.746 C 304.000 297.712,307.070 297.266,307.861 296.185 C 309.408 294.068,304.665 292.941,302.875 295.000 M266.528 295.100 C 272.429 295.162,281.969 295.162,287.728 295.100 C 293.488 295.037,288.660 294.986,277.000 294.986 C 265.340 294.986,260.628 295.037,266.528 295.100 M309.853 296.846 C 308.980 298.093,310.660 300.000,312.632 300.000 C 312.945 300.000,313.200 300.354,313.200 300.787 C 313.200 301.779,314.265 301.457,314.613 300.360 C 314.790 299.801,314.368 299.105,313.060 297.796 C 311.024 295.761,310.684 295.660,309.853 296.846 M131.269 297.100 C 144.177 297.158,165.417 297.158,178.469 297.100 C 191.521 297.041,180.960 296.994,155.000 296.994 C 129.040 296.993,118.361 297.041,131.269 297.100 M248.267 298.667 C 247.717 299.216,248.028 300.787,248.763 301.180 C 249.972 301.827,251.470 300.451,250.839 299.273 C 250.393 298.439,248.857 298.077,248.267 298.667 M320.880 307.680 C 320.343 308.217,320.241 308.825,320.700 308.753 C 321.622 308.607,322.000 308.905,322.000 309.776 C 322.000 311.015,322.642 311.448,322.917 310.396 C 323.041 309.921,323.463 309.600,323.963 309.600 C 324.423 309.600,324.800 309.408,324.800 309.173 C 324.800 308.920,324.454 308.856,323.950 309.016 C 323.361 309.203,323.187 309.144,323.384 308.825 C 324.084 307.693,321.877 306.683,320.880 307.680 M272.284 311.450 C 272.146 311.587,272.431 312.024,272.917 312.421 C 273.625 313.000,273.701 313.244,273.300 313.652 C 273.025 313.931,272.800 314.308,272.800 314.488 C 272.800 314.668,278.695 314.789,285.900 314.757 C 293.121 314.725,298.393 314.560,297.648 314.389 C 295.556 313.910,295.161 312.013,297.149 311.994 C 297.715 311.989,297.722 311.937,297.200 311.600 C 296.543 311.176,272.701 311.032,272.284 311.450 M298.684 311.450 C 298.546 311.587,298.831 312.024,299.317 312.421 C 300.025 313.000,300.101 313.244,299.700 313.652 C 299.029 314.334,299.069 314.800,299.800 314.800 C 300.130 314.800,300.400 314.967,300.400 315.171 C 300.400 315.834,301.688 316.852,302.252 316.636 C 302.553 316.520,302.800 316.599,302.800 316.813 C 302.800 317.026,303.101 317.200,303.470 317.200 C 304.026 317.200,303.982 317.033,303.211 316.212 C 302.462 315.414,302.376 315.111,302.767 314.640 C 303.276 314.027,302.327 313.200,301.115 313.200 C 300.322 313.200,299.126 311.700,299.725 311.456 C 300.005 311.343,299.940 311.250,299.567 311.232 C 299.218 311.214,298.821 311.312,298.684 311.450 M327.545 314.658 C 327.886 315.326,327.853 315.624,327.392 316.007 C 327.066 316.277,326.814 316.701,326.832 316.949 C 326.851 317.230,326.940 317.211,327.066 316.898 C 327.177 316.621,327.478 316.515,327.734 316.662 C 327.990 316.808,328.067 316.781,327.903 316.601 C 327.740 316.421,327.815 316.023,328.069 315.717 C 328.428 315.285,328.371 315.007,327.819 314.480 C 327.143 313.835,327.129 313.844,327.545 314.658 M327.426 318.771 C 326.966 319.280,326.821 319.837,327.002 320.406 L 327.276 321.270 327.878 320.409 C 328.585 319.401,329.807 320.127,330.123 321.742 C 330.225 322.261,330.313 322.042,330.346 321.189 C 330.445 318.607,328.804 317.248,327.426 318.771 M304.998 318.804 C 304.601 319.445,305.173 320.738,305.964 320.989 C 307.006 321.319,307.887 320.875,308.145 319.890 C 308.422 318.830,308.183 318.550,307.491 319.124 C 306.763 319.729,305.236 319.572,305.487 318.918 C 305.721 318.307,305.358 318.221,304.998 318.804 M309.850 322.719 C 309.742 322.895,309.808 323.289,309.997 323.595 C 310.489 324.391,309.364 326.438,308.597 326.143 C 308.269 326.017,307.995 325.709,307.988 325.457 C 307.981 325.206,307.801 325.300,307.587 325.666 C 306.739 327.119,308.378 328.506,309.618 327.383 C 310.005 327.034,310.439 326.117,310.584 325.345 C 310.729 324.574,310.946 323.684,311.068 323.367 C 311.229 322.948,311.096 322.865,310.579 323.063 C 310.092 323.250,309.960 323.189,310.158 322.868 C 310.317 322.611,310.357 322.400,310.247 322.400 C 310.137 322.400,309.958 322.544,309.850 322.719 M327.012 322.781 C 326.869 323.011,326.808 323.213,326.876 323.230 C 328.169 323.541,328.987 323.526,329.531 323.183 C 330.081 322.837,330.036 322.807,329.281 323.014 C 328.775 323.153,328.116 323.062,327.816 322.814 C 327.441 322.502,327.190 322.492,327.012 322.781 M306.902 324.481 C 306.882 325.715,306.908 325.741,307.307 324.887 C 307.596 324.270,307.602 323.842,307.328 323.568 C 307.054 323.294,306.916 323.590,306.902 324.481 M329.597 327.403 C 329.283 327.782,329.172 328.672,329.298 329.796 C 329.409 330.780,329.343 331.488,329.150 331.369 C 328.958 331.250,328.800 331.433,328.800 331.776 C 328.800 332.634,329.137 332.558,330.037 331.500 L 330.803 330.600 331.800 331.800 C 332.559 332.715,332.796 332.834,332.798 332.300 C 332.799 331.915,332.660 331.600,332.489 331.600 C 332.319 331.600,332.246 330.900,332.327 330.044 C 332.581 327.378,330.938 325.788,329.597 327.403 M309.826 331.971 C 309.377 332.468,309.223 333.041,309.393 333.579 L 309.659 334.416 310.352 333.559 C 311.004 332.755,311.087 332.744,311.723 333.380 C 312.688 334.345,312.766 362.399,311.805 363.196 C 311.044 363.827,310.004 363.436,309.988 362.513 C 309.976 361.841,309.953 361.840,309.571 362.495 C 309.064 363.365,309.592 364.441,310.970 365.343 C 312.712 366.485,313.339 366.227,313.060 364.482 C 312.926 363.648,312.805 356.206,312.791 347.946 C 312.761 330.946,312.419 329.106,309.826 331.971 M309.379 348.400 C 309.379 355.770,309.433 358.785,309.499 355.100 C 309.565 351.415,309.565 345.385,309.499 341.700 C 309.433 338.015,309.379 341.030,309.379 348.400 M331.927 364.600 C 331.378 365.806,330.585 365.885,329.907 364.800 C 329.316 363.853,328.800 363.760,328.800 364.600 C 328.800 364.930,328.936 365.200,329.103 365.200 C 329.269 365.200,329.344 365.975,329.269 366.923 C 329.061 369.534,331.677 370.750,332.173 368.273 C 332.902 364.637,332.775 362.739,331.927 364.600 M307.806 369.052 C 307.447 369.410,307.254 369.965,307.377 370.284 C 307.500 370.604,307.600 370.942,307.600 371.036 C 307.600 371.130,307.965 370.980,308.412 370.703 C 309.227 370.198,309.628 370.453,310.139 371.800 C 310.222 372.020,310.423 372.077,310.585 371.927 C 310.747 371.776,310.736 371.419,310.559 371.134 C 310.382 370.848,310.213 370.279,310.183 369.870 C 310.082 368.501,308.798 368.059,307.806 369.052 M306.902 371.919 C 306.916 372.810,307.054 373.106,307.328 372.832 C 307.602 372.558,307.596 372.130,307.307 371.513 C 306.908 370.659,306.882 370.685,306.902 371.919 M329.490 373.043 C 329.356 373.177,329.453 373.616,329.704 374.018 C 330.055 374.580,330.034 374.989,329.613 375.775 C 328.936 377.040,328.147 377.093,327.768 375.900 L 327.482 375.000 327.079 375.901 C 326.646 376.872,327.599 378.400,328.639 378.400 C 329.935 378.400,331.090 374.473,329.993 373.796 C 329.770 373.658,329.691 373.377,329.817 373.172 C 330.075 372.754,329.863 372.670,329.490 373.043 M308.200 374.000 C 308.598 374.440,309.104 374.800,309.323 374.800 C 309.543 374.800,309.307 374.440,308.800 374.000 C 308.293 373.560,307.787 373.200,307.677 373.200 C 307.566 373.200,307.802 373.560,308.200 374.000 M303.364 377.541 C 303.521 377.797,303.399 378.102,303.092 378.220 C 302.496 378.449,302.308 379.600,302.867 379.600 C 303.050 379.600,303.155 379.762,303.100 379.960 C 303.045 380.158,303.135 380.338,303.300 380.360 C 303.694 380.413,303.702 380.330,303.381 379.495 C 303.232 379.107,303.319 378.538,303.575 378.231 C 303.928 377.805,303.924 377.600,303.558 377.374 C 303.251 377.185,303.181 377.245,303.364 377.541 M298.626 379.643 C 298.809 379.937,298.630 380.000,298.092 379.829 C 296.802 379.420,295.802 380.649,296.533 381.746 C 296.846 382.216,297.439 382.619,297.851 382.643 C 298.263 382.666,298.905 382.817,299.279 382.977 C 299.975 383.277,301.963 382.141,301.987 381.430 C 301.994 381.227,301.557 381.477,301.015 381.986 C 300.074 382.870,299.984 382.882,299.015 382.247 C 297.792 381.445,297.745 381.024,298.797 380.287 C 299.236 379.980,299.476 379.609,299.331 379.464 C 298.892 379.026,298.333 379.168,298.626 379.643 M300.432 379.451 C 300.391 380.034,301.540 380.993,301.876 380.657 C 302.018 380.516,301.913 380.400,301.643 380.400 C 301.373 380.400,301.281 380.192,301.438 379.938 C 301.607 379.665,301.549 379.584,301.296 379.741 C 301.061 379.886,300.777 379.779,300.666 379.502 C 300.540 379.189,300.451 379.170,300.432 379.451 M326.832 379.369 C 326.814 379.571,327.098 380.066,327.462 380.469 C 328.427 381.535,327.158 383.009,325.850 382.340 C 325.039 381.926,325.032 381.940,325.692 382.631 C 326.358 383.328,326.421 383.320,327.392 382.408 C 328.427 381.435,328.729 380.400,327.976 380.400 C 327.743 380.400,327.681 380.192,327.838 379.938 C 328.007 379.665,327.949 379.584,327.696 379.741 C 327.461 379.886,327.177 379.779,327.066 379.502 C 326.954 379.226,326.849 379.166,326.832 379.369 M272.558 382.068 C 272.364 382.382,272.486 382.453,272.930 382.282 C 273.337 382.126,273.554 382.215,273.495 382.514 C 273.424 382.879,275.640 383.048,282.400 383.192 L 291.400 383.385 282.400 383.592 C 275.647 383.748,273.424 383.921,273.495 384.286 C 273.550 384.566,273.339 384.675,272.995 384.543 C 272.668 384.417,272.400 384.469,272.400 384.657 C 272.399 385.162,291.671 384.839,292.291 384.324 C 292.976 383.756,292.932 382.989,292.171 382.229 C 291.364 381.421,273.051 381.271,272.558 382.068 M320.123 391.278 C 319.229 391.710,318.546 392.800,319.170 392.800 C 319.359 392.800,319.618 392.530,319.745 392.200 C 319.871 391.870,320.240 391.600,320.564 391.600 C 320.888 391.600,321.264 391.420,321.400 391.200 C 321.708 390.701,321.261 390.728,320.123 391.278 M310.887 395.745 C 311.034 396.511,310.926 396.654,310.321 396.495 C 309.910 396.388,309.189 396.637,308.718 397.050 C 308.248 397.462,307.994 397.575,308.155 397.300 C 308.316 397.025,308.287 396.800,308.090 396.800 C 307.277 396.800,307.289 397.346,308.117 398.050 L 309.000 398.800 308.034 399.617 C 307.503 400.067,306.818 400.339,306.513 400.222 C 306.208 400.105,306.069 400.188,306.204 400.406 C 306.423 400.760,307.217 400.695,309.239 400.155 C 309.591 400.061,310.082 399.538,310.331 398.992 C 310.579 398.447,311.050 398.000,311.377 398.000 C 312.390 398.000,312.844 396.641,312.158 395.662 C 311.358 394.519,310.662 394.564,310.887 395.745 M316.019 395.580 C 315.700 395.782,315.267 395.841,315.057 395.712 C 314.848 395.582,314.794 395.667,314.939 395.901 C 315.224 396.362,316.679 396.119,317.030 395.552 C 317.312 395.096,316.760 395.111,316.019 395.580 M299.431 399.100 C 299.265 399.265,298.674 399.400,298.117 399.400 C 296.770 399.400,295.799 400.784,296.501 401.703 C 297.144 402.545,299.200 403.076,299.200 402.401 C 299.200 402.133,298.957 402.008,298.660 402.122 C 298.286 402.265,298.132 402.005,298.160 401.274 C 298.217 399.763,299.928 399.199,301.442 400.191 L 302.546 400.914 301.616 401.667 C 300.500 402.571,300.720 402.936,302.163 402.573 C 303.637 402.204,304.122 401.152,303.336 400.030 C 302.880 399.378,302.457 399.199,301.779 399.369 C 301.268 399.498,300.737 399.422,300.601 399.201 C 300.306 398.725,299.849 398.685,299.431 399.100 M270.154 402.177 C 269.808 403.076,270.131 404.072,270.925 404.557 C 271.955 405.186,273.385 403.494,272.780 402.363 C 272.299 401.463,270.477 401.334,270.154 402.177 M248.676 463.262 C 247.746 463.782,247.818 465.474,248.791 465.995 C 249.904 466.591,251.410 465.139,250.820 464.038 C 250.304 463.072,249.520 462.789,248.676 463.262 M257.900 470.696 C 259.275 470.774,261.525 470.774,262.900 470.696 C 264.275 470.618,263.150 470.554,260.400 470.554 C 257.650 470.554,256.525 470.618,257.900 470.696 M46.453 494.841 C 46.856 495.096,46.763 495.189,46.100 495.194 C 45.430 495.198,45.202 494.970,45.206 494.300 C 45.211 493.637,45.304 493.544,45.559 493.947 C 45.750 494.248,46.152 494.650,46.453 494.841 M354.800 494.400 C 354.800 494.933,354.533 495.200,354.000 495.200 C 353.235 495.200,353.230 495.167,353.900 494.433 C 354.796 493.452,354.800 493.452,354.800 494.400 M274.900 495.100 C 233.705 495.156,166.295 495.156,125.100 495.100 C 83.905 495.044,117.610 494.998,200.000 494.998 C 282.390 494.998,316.095 495.044,274.900 495.100 M32.979 512.023 C 32.408 512.655,32.333 513.005,32.660 513.523 C 33.322 514.572,366.678 514.572,367.340 513.523 C 367.667 513.005,367.592 512.655,367.021 512.023 L 366.276 511.200 200.000 511.200 L 33.724 511.200 32.979 512.023 " stroke="none" fill="#8c8b8b" fill-rule="evenodd"></path><path id="path2" d="M265.842 238.120 C 264.900 238.809,265.591 240.400,266.832 240.400 C 267.274 240.400,267.606 240.625,267.570 240.900 C 267.430 241.981,267.638 242.314,268.565 242.491 C 269.825 242.732,270.335 240.942,269.280 239.980 C 268.906 239.640,268.401 239.010,268.157 238.580 C 267.594 237.589,266.788 237.428,265.842 238.120 M206.958 279.000 C 206.958 282.080,207.021 283.287,207.097 281.682 C 207.173 280.078,207.173 277.558,207.096 276.082 C 207.019 274.607,206.957 275.920,206.958 279.000 M306.239 297.894 C 305.635 298.499,306.116 300.026,307.328 301.350 C 308.807 302.964,309.466 303.135,310.225 302.100 C 310.790 301.330,309.993 300.000,308.966 300.000 C 308.685 300.000,308.398 299.615,308.328 299.144 C 308.203 298.308,306.716 297.418,306.239 297.894 M268.591 348.200 C 268.591 366.460,268.640 373.988,268.700 364.930 C 268.760 355.871,268.760 340.931,268.700 331.730 C 268.640 322.528,268.591 329.940,268.591 348.200 M268.590 434.000 C 268.590 449.950,268.639 456.475,268.700 448.500 C 268.760 440.525,268.760 427.475,268.700 419.500 C 268.639 411.525,268.590 418.050,268.590 434.000 " stroke="none" fill="#e4642c" fill-rule="evenodd"></path><path id="path3" d="" stroke="none" fill="#d87038" fill-rule="evenodd"></path><path id="path4" d="" stroke="none" fill="#d87038" fill-rule="evenodd"></path></g></svg>