<?xml version="1.0" standalone="no"?>
<!DOCTYPE svg PUBLIC "-//W3C//DTD SVG 20010904//EN"
 "http://www.w3.org/TR/2001/REC-SVG-20010904/DTD/svg10.dtd">
<svg version="1.0" xmlns="http://www.w3.org/2000/svg"
 width="192.000000pt" height="192.000000pt" viewBox="0 0 192.000000 192.000000"
 preserveAspectRatio="xMidYMid meet">

<g transform="translate(0.000000,192.000000) scale(0.100000,-0.100000)"
fill="#000000" stroke="none">
<path d="M0 960 l0 -960 960 0 960 0 0 960 0 960 -960 0 -960 0 0 -960z m855
510 c55 -77 103 -140 107 -140 3 0 52 63 108 140 l102 141 151 -3 152 -3 0
-100 0 -100 -37 -3 -38 -3 0 -160 0 -159 40 0 40 0 0 -100 0 -100 -195 0 -195
0 0 100 0 100 40 0 40 0 0 102 c0 58 -4 98 -9 93 -4 -6 -50 -67 -101 -137 -51
-71 -95 -128 -99 -128 -3 0 -48 59 -100 130 -51 72 -97 133 -102 136 -5 3 -9
-40 -9 -95 l0 -101 45 0 45 0 0 -100 0 -100 -195 0 -195 0 0 100 0 100 40 0
40 0 0 160 0 160 -40 0 -40 0 0 105 0 105 153 0 152 0 100 -140z m-288 -715
c8 -23 -5 -31 -27 -17 -33 20 -32 -5 0 -28 25 -18 31 -28 28 -54 -3 -29 -5
-31 -43 -31 -34 0 -40 3 -43 23 -4 26 22 31 32 5 5 -13 9 -14 19 -4 9 9 5 17
-21 37 -30 24 -42 61 -25 77 13 14 74 7 80 -8z m117 -1 c9 -24 7 -34 -8 -34
-8 0 -17 7 -20 16 -11 28 -26 4 -26 -41 0 -45 15 -69 26 -41 7 19 34 21 34 3
0 -34 -57 -50 -79 -23 -18 21 -24 77 -12 109 9 22 17 27 45 27 22 0 36 -6 40
-16z m66 -14 c0 -20 5 -30 15 -30 10 0 15 10 15 30 0 20 5 30 15 30 12 0 15
-15 15 -75 0 -60 -3 -75 -15 -75 -10 0 -15 11 -15 35 0 24 -5 35 -15 35 -10 0
-15 -11 -15 -35 0 -28 -4 -35 -20 -35 -18 0 -20 7 -20 75 0 68 2 75 20 75 16
0 20 -7 20 -30z m180 11 c5 -11 10 -36 10 -56 0 -51 -15 -75 -48 -75 -16 0
-33 5 -40 12 -13 13 -17 120 -5 131 15 16 72 7 83 -12z m134 -27 c11 -56 -8
-98 -49 -102 -37 -5 -55 19 -55 71 0 60 15 79 58 75 35 -3 38 -6 46 -44z m56
-14 c0 -57 1 -60 25 -60 16 0 25 -6 25 -15 0 -11 -11 -15 -40 -15 l-40 0 0 75
c0 60 3 75 15 75 12 0 15 -13 15 -60z m200 41 c13 -25 13 -72 0 -105 -8 -21
-16 -26 -45 -26 -29 0 -37 5 -45 26 -13 33 -13 80 0 105 7 13 21 19 45 19 24
0 38 -6 45 -19z m110 10 c0 -5 -10 -11 -22 -13 -34 -5 -37 -38 -4 -38 32 0 35
-17 4 -22 -18 -2 -24 -11 -26 -35 -2 -21 -9 -33 -18 -33 -11 0 -14 16 -14 75
l0 75 40 0 c22 0 40 -4 40 -9z m-1050 -246 c0 -68 -2 -75 -20 -75 -18 0 -20 7
-20 68 0 71 4 82 27 82 10 0 13 -19 13 -75z m87 28 l21 -48 1 48 c1 34 5 47
14 45 8 -3 13 -30 15 -76 3 -70 2 -72 -21 -72 -19 0 -28 9 -40 38 l-16 37 0
-37 c-1 -31 -5 -38 -21 -38 -18 0 -20 7 -20 68 0 38 3 72 7 75 18 19 41 4 60
-40z m153 32 c0 -9 -9 -15 -25 -15 -31 0 -34 -27 -3 -32 32 -5 35 -28 4 -28
-22 0 -26 -4 -26 -30 0 -20 -5 -30 -15 -30 -12 0 -15 15 -15 75 l0 75 40 0
c29 0 40 -4 40 -15z m104 -1 c10 -10 16 -33 16 -64 0 -41 -4 -52 -24 -65 -18
-12 -30 -13 -50 -6 -24 10 -26 15 -26 69 0 32 5 63 12 70 17 17 54 15 72 -4z
m128 -9 c8 -18 8 -28 0 -38 -7 -8 -7 -18 -2 -27 17 -27 12 -60 -10 -60 -15 0
-20 7 -20 24 0 14 -4 28 -10 31 -6 4 -10 -7 -10 -24 0 -24 -4 -31 -20 -31 -18
0 -20 7 -20 75 l0 75 40 0 c33 0 42 -4 52 -25z m90 -22 l12 -48 11 45 c9 38
15 45 35 45 24 0 25 -3 28 -72 3 -68 1 -73 -18 -73 -16 0 -20 7 -21 33 l-1 32
-9 -32 c-14 -49 -43 -44 -56 10 l-11 42 -1 -42 c-1 -31 -5 -43 -16 -43 -12 0
-15 15 -15 75 0 73 1 75 25 75 21 0 26 -7 37 -47z m188 39 c0 -4 9 -37 19 -75
19 -66 19 -67 0 -67 -10 0 -19 7 -19 15 0 9 -9 15 -25 15 -16 0 -25 -6 -25
-15 0 -8 -7 -15 -15 -15 -8 0 -15 6 -15 13 0 14 29 117 37 130 6 9 43 9 43 -1z
m138 -9 c2 -8 -5 -13 -17 -13 -19 0 -21 -6 -21 -60 0 -47 -3 -60 -15 -60 -12
0 -15 13 -15 60 0 53 -2 60 -20 60 -20 0 -26 11 -13 24 12 11 96 2 101 -11z
m42 -58 c0 -60 -3 -75 -15 -75 -12 0 -15 15 -15 75 0 60 3 75 15 75 12 0 15
-15 15 -75z m118 63 c14 -14 16 -106 3 -127 -5 -8 -24 -14 -41 -14 -40 0 -50
15 -50 79 0 56 12 74 50 74 14 0 31 -5 38 -12z m100 -35 l20 -48 1 48 c1 35 5
47 16 47 12 0 15 -15 15 -75 0 -73 -1 -75 -24 -75 -20 0 -27 8 -39 43 l-15 42
-1 -42 c-1 -31 -5 -43 -16 -43 -12 0 -15 15 -15 75 0 67 2 75 19 75 13 0 25
-15 39 -47z m-1313 -215 c0 -23 5 -33 15 -33 10 0 15 10 15 33 0 19 5 32 12
32 7 0 11 -6 9 -12 -3 -7 -7 -26 -11 -41 -5 -24 -10 -28 -33 -25 -23 3 -27 8
-30 41 -2 25 1 37 10 37 8 0 13 -12 13 -32z m103 10 l25 -23 -6 23 c-3 13 -1
22 7 22 8 0 10 -14 8 -42 l-4 -42 -26 29 -25 30 5 -28 c3 -16 1 -27 -6 -27 -6
0 -11 17 -11 40 0 22 2 40 4 40 3 0 16 -10 29 -22z m77 -18 c0 -22 -4 -40 -10
-40 -5 0 -10 18 -10 40 0 22 5 40 10 40 6 0 10 -18 10 -40z m52 33 c-3 -5 -1
-17 3 -28 7 -18 8 -18 15 8 4 15 11 27 15 27 5 0 1 -18 -8 -40 -17 -39 -32
-52 -32 -27 0 6 -7 24 -14 40 -14 25 -13 27 5 27 11 0 18 -3 16 -7z m103 -3
c0 -5 -7 -7 -15 -4 -8 4 -15 1 -15 -5 0 -6 7 -11 15 -11 8 0 15 -4 15 -10 0
-5 -7 -10 -15 -10 -8 0 -15 -5 -15 -11 0 -6 9 -9 20 -6 11 3 20 1 20 -4 0 -5
-12 -9 -28 -9 -25 0 -27 3 -27 40 0 35 2 40 22 40 13 0 23 -4 23 -10z m75 -24
c0 -24 5 -29 28 -32 29 -3 37 10 12 20 -23 8 -19 46 4 46 11 0 23 -5 27 -11 4
-8 -1 -9 -17 -4 l-24 6 24 -19 c33 -27 22 -53 -21 -50 -18 1 -42 9 -52 17 -18
15 -19 15 -13 -1 4 -11 2 -18 -6 -18 -7 0 -12 15 -12 40 0 38 2 41 25 38 20
-2 25 -9 25 -32z m110 -6 c0 -22 -4 -40 -10 -40 -5 0 -10 18 -10 40 -1 22 4
40 10 40 5 0 10 -18 10 -40z m85 30 c0 -5 -7 -7 -16 -3 -14 5 -16 0 -12 -30 2
-23 0 -37 -7 -37 -7 0 -9 14 -7 37 4 30 2 35 -12 30 -9 -4 -16 -2 -16 3 0 6
16 10 35 10 19 0 35 -4 35 -10z m45 1 c-3 -5 -1 -12 5 -16 5 -3 10 1 10 9 0 9
7 16 15 16 14 0 13 -3 -1 -25 -9 -14 -14 -32 -10 -40 3 -10 -1 -15 -13 -15
-14 0 -18 5 -14 20 3 12 -2 29 -12 40 -17 19 -17 20 4 20 12 0 20 -4 16 -9z
m145 -5 c6 -8 10 -25 8 -38 -6 -42 -78 -32 -78 11 0 37 46 55 70 27z m74 5 c4
-5 -3 -7 -14 -4 -11 3 -20 0 -20 -6 0 -6 7 -11 15 -11 8 0 15 -5 15 -11 0 -6
-7 -8 -16 -5 -13 5 -15 2 -11 -14 3 -11 0 -20 -6 -20 -7 0 -12 16 -12 40 0 34
3 40 22 40 12 0 24 -4 27 -9z m79 -23 c12 -21 15 -34 8 -41 -7 -7 -14 -3 -20
14 -10 24 -10 24 -10 2 -1 -41 -16 -24 -16 17 0 48 14 51 38 8z m52 -8 c0 -44
-19 -55 -29 -16 -7 29 1 56 18 56 6 0 11 -17 11 -40z m45 0 c0 -22 -4 -40 -10
-40 -5 0 -10 18 -10 40 0 22 5 40 10 40 6 0 10 -18 10 -40z m74 31 c4 -5 -2
-7 -13 -4 -11 3 -21 -2 -24 -11 -10 -25 3 -48 24 -43 11 3 19 1 19 -4 0 -15
-47 -10 -60 6 -10 12 -10 21 -2 40 11 25 45 34 56 16z m50 -6 c-4 -9 0 -15 10
-15 9 0 16 7 16 15 0 8 6 15 13 15 7 0 12 -15 12 -40 0 -27 -4 -40 -14 -40 -8
0 -11 6 -7 15 4 10 -1 15 -15 15 -15 0 -19 -5 -15 -15 3 -9 0 -15 -9 -15 -11
0 -15 11 -15 40 0 29 4 40 15 40 9 0 12 -6 9 -15z m96 -25 c0 -25 -5 -40 -12
-40 -8 0 -13 15 -13 40 0 25 5 40 13 40 7 0 12 -15 12 -40z m74 32 c3 -5 -5
-8 -17 -8 -17 1 -22 -5 -22 -24 0 -16 6 -26 17 -28 13 -2 16 1 12 12 -4 10 -1
16 9 16 10 0 13 -7 10 -20 -10 -37 -73 -19 -73 20 0 31 49 55 64 32z m84 -39
c9 -27 8 -33 -3 -33 -7 0 -16 6 -18 13 -4 9 -8 8 -16 -3 -18 -26 -22 -4 -5 35
17 41 25 38 42 -12z m64 25 l20 -23 -5 23 c-3 13 0 22 7 22 8 0 10 -14 8 -42
l-4 -42 -26 29 -25 30 5 -28 c3 -16 1 -27 -6 -27 -6 0 -11 17 -11 40 0 46 8
50 37 18z"/>
<path d="M877 743 c-11 -10 -8 -91 2 -98 17 -10 33 35 26 71 -6 33 -14 41 -28
27z"/>
<path d="M997 720 c-8 -37 9 -88 24 -73 13 13 7 95 -7 100 -6 2 -14 -10 -17
-27z"/>
<path d="M1265 738 c-9 -24 -2 -93 10 -93 14 0 19 85 6 98 -7 7 -12 5 -16 -5z"/>
<path d="M672 513 c3 -51 22 -68 32 -28 9 34 -3 75 -21 75 -11 0 -13 -11 -11
-47z"/>
<path d="M800 539 c0 -11 5 -17 10 -14 6 3 10 13 10 21 0 8 -4 14 -10 14 -5 0
-10 -9 -10 -21z"/>
<path d="M1097 520 c-3 -12 0 -20 8 -20 8 0 11 8 8 20 -3 11 -7 20 -8 20 -1 0
-5 -9 -8 -20z"/>
<path d="M1374 547 c-10 -28 0 -82 16 -82 11 0 15 12 15 44 0 44 -19 68 -31
38z"/>
<path d="M590 334 c0 -8 5 -12 10 -9 6 3 10 10 10 16 0 5 -4 9 -10 9 -5 0 -10
-7 -10 -16z"/>
<path d="M964 336 c-8 -22 3 -49 19 -43 6 2 12 14 12 27 0 27 -22 39 -31 16z"/>
<path d="M1605 320 c-3 -5 -1 -10 4 -10 6 0 11 5 11 10 0 6 -2 10 -4 10 -3 0
-8 -4 -11 -10z"/>
</g>
</svg>
